{"glyphs":{"0":{"ha":1015,"x_min":97,"x_max":918,"o":"m 511 -28 q 205 114 313 -28 q 97 478 97 256 q 122 678 97 586 q 196 844 147 771 q 326 958 244 917 q 511 1000 407 1000 q 812 853 706 1000 q 918 478 918 707 q 812 114 918 256 q 511 -28 706 -28 m 332 813 l 332 153 l 685 153 l 685 813 l 332 813 z "},"1":{"ha":419,"x_min":14,"x_max":378,"o":"m 14 785 l 14 972 l 378 972 l 378 0 l 156 0 l 156 785 l 14 785 z "},"2":{"ha":819,"x_min":56,"x_max":764,"o":"m 764 0 l 79 0 l 79 194 l 386 468 q 455 538 436 518 q 494 601 474 558 q 514 694 514 644 l 514 813 l 292 813 l 292 653 l 56 653 q 149 913 56 825 q 413 1000 242 1000 q 665 919 579 1000 q 750 693 750 839 q 743 613 750 650 q 716 540 736 576 q 679 478 696 503 q 622 413 663 453 q 557 349 582 372 q 472 272 532 325 q 378 188 413 219 l 764 188 l 764 0 z "},"3":{"ha":833,"x_min":42,"x_max":750,"o":"m 500 581 l 500 813 l 292 813 l 293 667 l 43 667 q 94 861 43 783 q 222 969 146 939 q 393 1000 297 1000 q 517 985 458 1000 q 626 938 575 969 q 706 848 676 906 q 736 714 736 790 q 694 570 736 629 q 589 486 653 511 q 703 412 657 467 q 750 274 750 357 q 648 51 750 131 q 393 -28 546 -28 q 142 58 242 -28 q 42 306 42 144 l 292 306 l 292 153 l 500 153 l 500 393 l 336 393 l 336 581 l 500 581 z "},"4":{"ha":889,"x_min":56,"x_max":833,"o":"m 56 176 l 57 972 l 265 972 l 265 367 l 472 364 l 472 972 l 681 972 l 681 364 l 833 364 l 833 176 l 681 176 l 681 0 l 472 0 l 472 176 l 56 176 z "},"5":{"ha":833,"x_min":121,"x_max":814,"o":"m 318 785 l 318 532 q 410 594 356 574 q 508 614 464 614 q 726 529 639 614 q 814 319 814 444 q 710 65 814 158 q 456 -28 607 -28 q 121 288 121 -28 l 343 288 l 343 163 l 571 163 l 571 417 l 149 417 l 149 972 l 735 972 l 735 785 l 318 785 z "},"6":{"ha":833,"x_min":33,"x_max":792,"o":"m 517 667 l 514 814 l 283 813 l 283 503 q 366 583 310 553 q 494 613 422 613 q 705 527 618 613 q 792 306 792 442 q 697 66 792 160 q 425 -28 601 -28 q 33 486 33 -28 q 119 868 33 736 q 414 1000 204 1000 q 665 911 564 1000 q 767 667 767 822 l 517 667 m 278 425 l 278 160 l 565 160 l 565 425 l 278 425 z "},"7":{"ha":708,"x_min":28,"x_max":681,"o":"m 28 785 l 28 972 l 681 972 l 681 799 q 400 0 400 388 l 178 0 q 243 393 178 204 q 432 785 308 582 l 28 785 z "},"8":{"ha":896,"x_min":74,"x_max":821,"o":"m 672 508 q 781 426 742 485 q 821 282 821 367 q 732 60 821 147 q 453 -28 643 -28 q 170 63 267 -28 q 74 271 74 153 q 119 422 74 353 q 231 508 165 490 q 139 599 171 540 q 107 732 107 658 q 200 924 107 849 q 447 1000 293 1000 q 693 926 599 1000 q 788 732 788 851 q 672 508 788 589 m 324 811 l 324 600 l 571 600 l 571 811 l 324 811 m 324 400 l 324 160 l 571 160 l 571 400 l 324 400 z "},"9":{"ha":833,"x_min":53,"x_max":771,"o":"m 531 407 q 371 360 488 360 q 140 449 226 360 q 54 681 54 539 q 149 915 54 829 q 408 1000 243 1000 q 682 887 593 1000 q 771 575 771 774 q 769 453 771 506 q 762 342 767 401 q 746 238 757 282 q 717 150 735 194 q 674 76 700 106 q 613 21 649 46 q 531 -16 578 -4 q 424 -28 483 -28 q 147 51 242 -28 q 53 310 53 131 l 289 310 l 289 160 l 531 160 l 531 407 m 260 813 l 260 532 l 532 532 l 532 813 l 260 813 z "}," ":{"ha":278,"x_min":0,"x_max":0,"o":""},"!":{"ha":319,"x_min":56,"x_max":264,"o":"m 56 972 l 264 972 l 229 326 l 90 326 l 56 972 m 63 194 l 257 194 l 257 0 l 63 0 l 63 194 z "},"\"":{"ha":590,"x_min":56,"x_max":535,"o":"m 56 972 l 236 972 l 236 869 l 211 599 l 81 599 l 56 869 l 56 972 m 354 972 l 535 972 l 535 869 l 510 599 l 379 599 l 354 869 l 354 972 z "},"#":{"ha":1085,"x_min":56,"x_max":1029,"o":"m 1001 606 l 857 606 l 818 383 l 986 383 l 958 244 l 794 244 l 751 0 l 543 0 l 586 244 l 392 244 l 342 0 l 133 0 l 183 244 l 56 244 l 83 383 l 211 383 l 256 606 l 113 606 l 140 744 l 285 744 l 331 972 l 539 972 l 493 744 l 672 744 l 713 972 l 921 972 l 881 744 l 1029 744 l 1001 606 m 610 383 l 649 606 l 464 606 l 419 383 l 610 383 z "},"$":{"ha":890,"x_min":56,"x_max":835,"o":"m 835 289 q 754 87 835 167 q 550 -18 674 7 l 550 -154 l 342 -154 l 342 -19 q 56 306 56 26 l 292 306 l 292 153 l 582 153 l 583 251 q 428 381 583 347 q 173 490 268 408 q 78 713 78 572 q 148 895 78 822 q 342 990 218 968 l 342 1111 l 550 1111 l 550 990 q 745 890 668 968 q 822 667 822 813 l 586 667 l 586 819 l 324 819 l 324 713 q 336 663 324 683 q 373 630 349 642 q 415 613 397 618 q 461 603 433 608 q 611 561 549 583 q 727 503 674 539 q 808 415 781 468 q 835 289 835 361 z "},"%":{"ha":1267,"x_min":56,"x_max":1211,"o":"m 846 1033 l 976 1033 l 413 -57 l 281 -57 l 846 1033 m 565 746 q 490 568 565 643 q 311 493 414 493 q 131 567 206 493 q 56 749 56 642 q 131 926 56 851 q 313 1000 207 1000 q 491 926 417 1000 q 565 746 565 851 m 179 879 l 179 615 l 443 615 l 443 879 l 179 879 m 958 479 q 1137 405 1063 479 q 1211 225 1211 331 q 1135 47 1211 122 q 957 -28 1060 -28 q 775 47 850 -28 q 700 228 700 122 q 776 405 700 331 q 958 479 853 479 m 1088 94 l 1088 358 l 824 358 l 824 94 l 1088 94 z "},"&":{"ha":833,"x_min":14,"x_max":763,"o":"m 14 274 q 60 412 14 357 q 175 486 107 467 q 69 570 111 511 q 28 714 28 629 q 60 848 28 790 q 147 938 92 906 q 265 985 201 969 q 399 1000 328 1000 q 663 925 564 1000 q 763 694 763 850 l 513 694 l 514 813 l 264 813 l 264 581 l 757 581 l 757 319 q 660 58 757 144 q 385 -28 563 -28 q 122 51 231 -28 q 14 274 14 131 m 264 153 l 514 153 l 513 393 l 264 393 l 264 153 z "},"'":{"ha":292,"x_min":56,"x_max":236,"o":"m 56 972 l 236 972 l 236 869 l 211 599 l 81 599 l 56 869 l 56 972 z "},"(":{"ha":467,"x_min":56,"x_max":411,"o":"m 411 1069 q 247 467 247 807 q 407 -121 247 146 l 256 -121 q 56 471 56 153 q 108 788 56 633 q 258 1069 160 943 l 411 1069 z "},")":{"ha":467,"x_min":56,"x_max":411,"o":"m 56 1069 l 208 1069 q 359 788 307 943 q 411 471 411 633 q 211 -121 411 153 l 60 -121 q 219 467 219 146 q 56 1069 219 807 z "},"*":{"ha":679,"x_min":56,"x_max":624,"o":"m 624 739 l 624 638 l 464 638 l 578 524 l 506 451 l 392 565 l 392 404 l 289 404 l 289 565 l 175 451 l 104 522 l 218 636 l 56 636 l 56 738 l 217 738 l 101 853 l 174 925 l 288 811 l 288 972 l 390 972 l 390 811 l 504 925 l 575 853 l 461 739 l 624 739 z "},"+":{"ha":868,"x_min":56,"x_max":813,"o":"m 813 532 l 813 386 l 507 386 l 507 82 l 361 82 l 361 386 l 56 386 l 56 532 l 361 532 l 361 836 l 507 836 l 507 532 l 813 532 z "},",":{"ha":306,"x_min":56,"x_max":250,"o":"m 56 194 l 250 194 l 250 0 l 189 -125 l 96 -125 l 149 0 l 56 0 l 56 194 z "},"-":{"ha":569,"x_min":56,"x_max":514,"o":"m 56 542 l 514 542 l 514 361 l 56 361 l 56 542 z "},".":{"ha":306,"x_min":56,"x_max":250,"o":"m 56 194 l 250 194 l 250 0 l 56 0 l 56 194 z "},"/":{"ha":833,"x_min":88,"x_max":694,"o":"m 582 1028 l 694 1028 l 200 -97 l 88 -97 l 582 1028 z "},":":{"ha":306,"x_min":56,"x_max":250,"o":"m 56 194 l 250 194 l 250 0 l 56 0 l 56 194 z "},";":{"ha":833,"x_min":56,"x_max":250,"o":"m 56 194 l 250 194 l 250 0 l 189 -125 l 96 -125 l 149 0 l 56 0 l 56 194 z "},"<":{"ha":833,"x_min":0,"x_max":0,"o":""},"=":{"ha":865,"x_min":56,"x_max":810,"o":"m 56 694 l 810 694 l 810 549 l 56 549 l 56 694 m 56 371 l 810 371 l 810 225 l 56 225 l 56 371 z "},">":{"ha":833,"x_min":0,"x_max":0,"o":""},"?":{"ha":781,"x_min":56,"x_max":725,"o":"m 419 608 q 460 639 449 629 q 485 675 471 649 q 499 738 499 701 l 499 813 l 278 813 l 278 668 l 56 668 q 386 1000 56 1000 q 639 928 553 1000 q 725 724 725 856 q 597 513 725 618 q 551 474 567 489 q 519 422 536 458 q 501 339 501 385 l 294 339 q 317 502 294 454 q 419 608 340 550 m 296 194 l 490 194 l 490 0 l 296 0 l 296 194 z "},"@":{"ha":1206,"x_min":56,"x_max":1150,"o":"m 708 721 l 832 721 l 832 318 l 946 318 l 946 819 l 263 821 l 263 147 l 869 147 l 867 0 q 613 -28 785 -28 q 206 112 356 -28 q 56 478 56 251 q 199 858 56 717 q 604 1000 342 1000 q 1008 894 867 1000 q 1150 599 1150 789 q 1137 457 1150 521 q 1093 338 1124 393 q 1007 251 1063 282 q 874 221 951 221 q 760 247 803 221 q 714 311 718 274 q 557 226 672 226 q 386 300 458 226 q 314 492 314 374 q 380 674 314 594 q 550 753 446 753 q 708 676 647 753 l 708 721 m 457 489 q 492 399 457 438 q 582 361 526 361 q 686 404 651 361 l 686 578 q 582 617 647 617 q 491 581 526 617 q 457 489 456 544 z "},"A":{"ha":871,"x_min":-28,"x_max":899,"o":"m 899 0 l 671 0 l 600 196 l 257 196 l 194 0 l -28 0 l 303 972 l 560 972 l 899 0 m 549 383 l 433 775 l 318 383 l 549 383 z "},"B":{"ha":872,"x_min":56,"x_max":831,"o":"m 461 972 q 695 909 608 972 q 782 726 782 846 q 628 524 782 554 q 779 454 728 514 q 831 296 831 394 q 756 88 831 176 q 532 0 681 0 l 56 0 l 56 972 l 461 972 m 278 592 l 417 592 q 546 693 546 592 q 533 746 546 725 q 497 774 521 767 q 456 783 472 781 q 413 785 439 785 l 278 785 l 278 592 m 278 188 l 446 188 q 556 222 518 188 q 594 310 594 257 q 549 402 594 372 q 442 432 504 432 l 278 432 l 278 188 z "},"C":{"ha":975,"x_min":56,"x_max":919,"o":"m 683 625 l 683 813 l 332 813 l 332 160 l 683 160 l 683 333 l 919 333 q 803 65 919 157 q 496 -28 688 -28 q 167 119 278 -28 q 56 504 56 265 q 102 750 56 640 q 252 930 149 860 q 503 1000 356 1000 q 810 900 701 1000 q 919 625 919 800 l 683 625 z "},"D":{"ha":943,"x_min":56,"x_max":888,"o":"m 360 972 q 749 849 610 972 q 888 493 888 726 q 768 131 888 263 q 425 0 649 0 l 56 0 l 56 972 l 360 972 m 278 186 l 394 186 q 596 270 526 186 q 665 496 665 354 q 594 704 665 624 q 396 785 522 785 l 278 785 l 278 186 z "},"E":{"ha":764,"x_min":56,"x_max":708,"o":"m 278 785 l 278 588 l 611 588 l 611 400 l 278 400 l 278 188 l 708 188 l 708 0 l 56 0 l 56 972 l 708 972 l 708 785 l 278 785 z "},"F":{"ha":706,"x_min":56,"x_max":678,"o":"m 278 785 l 278 586 l 585 586 l 585 399 l 278 399 l 278 0 l 56 0 l 56 972 l 678 972 l 678 785 l 278 785 z "},"G":{"ha":975,"x_min":56,"x_max":919,"o":"m 547 343 l 547 510 l 918 510 l 918 0 l 751 0 l 751 96 q 647 1 708 31 q 492 -28 585 -28 q 283 14 371 -28 q 147 131 196 56 q 77 296 99 206 q 56 496 56 386 q 79 687 56 600 q 152 846 103 774 q 290 959 201 918 q 497 1000 378 1000 q 810 903 700 1000 q 919 625 919 807 l 683 625 l 683 821 l 325 821 l 325 153 l 701 153 l 701 343 l 547 343 z "},"H":{"ha":878,"x_min":56,"x_max":822,"o":"m 600 972 l 822 972 l 822 0 l 600 0 l 600 399 l 278 399 l 278 0 l 56 0 l 56 972 l 278 972 l 278 586 l 600 586 l 600 972 z "},"I":{"ha":333,"x_min":56,"x_max":278,"o":"m 278 0 l 56 0 l 56 972 l 278 972 l 278 0 z "},"J":{"ha":546,"x_min":56,"x_max":490,"o":"m 490 217 q 454 49 490 97 q 317 0 418 0 l 56 0 l 56 188 l 268 188 l 268 972 l 490 972 l 490 217 z "},"K":{"ha":906,"x_min":56,"x_max":850,"o":"m 850 0 l 568 0 l 272 368 l 272 0 l 56 0 l 56 972 l 272 972 l 272 631 l 550 972 l 813 972 l 408 504 l 850 0 z "},"L":{"ha":633,"x_min":56,"x_max":606,"o":"m 606 188 l 606 0 l 56 0 l 56 972 l 278 972 l 278 188 l 606 188 z "},"M":{"ha":1185,"x_min":56,"x_max":1129,"o":"m 683 0 l 496 0 l 278 771 l 278 0 l 56 0 l 56 972 l 408 972 l 593 360 l 769 972 l 1129 972 l 1129 0 l 907 0 l 907 771 l 683 0 z "},"N":{"ha":917,"x_min":56,"x_max":861,"o":"m 861 0 l 657 0 l 264 679 l 264 0 l 56 0 l 56 972 l 306 972 l 653 379 l 653 972 l 861 972 l 861 0 z "},"O":{"ha":1015,"x_min":56,"x_max":960,"o":"m 511 -28 q 170 113 285 -28 q 56 478 56 253 q 81 678 56 586 q 159 843 107 769 q 301 958 211 917 q 511 1000 392 1000 q 847 856 733 1000 q 960 478 960 711 q 847 112 960 251 q 511 -28 733 -28 m 290 813 l 290 153 l 726 153 l 726 813 l 290 813 z "},"P":{"ha":794,"x_min":56,"x_max":778,"o":"m 278 0 l 56 0 l 56 972 l 414 972 q 678 896 579 972 q 778 653 778 819 q 678 412 778 493 q 421 331 579 331 l 278 331 l 278 0 m 389 518 q 542 644 542 518 q 388 785 542 785 l 278 785 l 278 518 l 389 518 z "},"Q":{"ha":1015,"x_min":56,"x_max":960,"o":"m 683 0 q 778 -28 704 -28 l 839 -28 l 839 -185 q 738 -200 800 -200 q 585 -160 644 -200 q 503 -28 526 -121 q 168 115 281 -25 q 56 478 56 254 q 81 678 56 586 q 159 843 107 769 q 301 958 211 917 q 511 1000 392 1000 q 847 856 733 1000 q 960 478 960 711 q 890 176 960 303 q 683 0 821 49 m 290 813 l 290 153 l 726 153 l 726 813 l 290 813 z "},"R":{"ha":829,"x_min":56,"x_max":843,"o":"m 843 0 l 593 0 l 410 368 l 278 368 l 278 0 l 56 0 l 56 972 l 422 972 q 707 888 600 972 q 814 665 814 804 q 633 400 814 465 l 843 0 m 278 785 l 278 528 l 414 528 q 578 663 578 528 q 563 731 578 704 q 522 768 549 757 q 473 782 494 779 q 422 785 451 785 l 278 785 z "},"S":{"ha":890,"x_min":56,"x_max":835,"o":"m 586 667 l 586 819 l 324 819 l 324 713 q 336 663 324 683 q 373 630 349 642 q 415 613 397 618 q 461 603 433 608 q 611 561 549 583 q 727 503 674 539 q 808 415 781 468 q 835 289 835 361 q 722 57 835 142 q 454 -28 608 -28 q 303 -12 371 -28 q 178 40 236 4 q 88 144 121 76 q 56 306 56 211 l 292 306 l 292 153 l 582 153 l 583 251 q 428 381 583 347 q 173 490 268 408 q 78 713 78 572 q 178 922 78 844 q 447 1000 279 1000 q 551 991 501 1000 q 651 958 600 982 q 738 898 701 935 q 799 801 775 861 q 822 667 822 742 l 586 667 z "},"T":{"ha":814,"x_min":56,"x_max":786,"o":"m 786 972 l 786 785 l 532 785 l 532 0 l 310 0 l 310 785 l 56 785 l 56 972 l 786 972 z "},"U":{"ha":883,"x_min":56,"x_max":828,"o":"m 828 300 q 743 44 828 117 q 440 -28 658 -28 q 141 44 226 -28 q 56 300 56 115 l 56 972 l 278 972 l 278 160 l 606 160 l 606 972 l 828 972 l 828 300 z "},"V":{"ha":828,"x_min":-28,"x_max":856,"o":"m 563 0 l 285 0 l -28 972 l 208 972 l 424 203 l 619 972 l 856 972 l 563 0 z "},"W":{"ha":1232,"x_min":0,"x_max":1260,"o":"m 1038 0 l 815 0 l 619 678 l 442 0 l 206 0 l 0 972 l 236 972 l 353 289 l 501 972 l 738 972 l 903 289 l 1024 972 l 1260 972 l 1038 0 z "},"X":{"ha":872,"x_min":0,"x_max":858,"o":"m 858 0 l 575 0 l 422 264 l 265 0 l 0 0 l 292 490 l 13 972 l 296 972 l 435 733 l 576 972 l 842 972 l 565 507 l 858 0 z "},"Y":{"ha":831,"x_min":28,"x_max":858,"o":"m 560 401 l 560 0 l 338 0 l 338 401 l 28 972 l 285 972 l 456 610 l 601 972 l 858 972 l 560 401 z "},"Z":{"ha":819,"x_min":56,"x_max":764,"o":"m 336 188 l 764 188 l 764 0 l 64 0 l 64 168 l 461 785 l 56 785 l 56 972 l 735 972 l 735 801 l 336 188 z "},"[":{"ha":528,"x_min":56,"x_max":472,"o":"m 56 1056 l 471 1056 l 471 944 l 272 944 l 272 28 l 472 28 l 472 -83 l 56 -83 l 56 1056 z "},"\\":{"ha":833,"x_min":88,"x_max":694,"o":"m 582 1028 l 694 1028 l 200 -97 l 88 -97 l 582 1028 z "},"]":{"ha":528,"x_min":56,"x_max":472,"o":"m 472 1056 l 472 -83 l 56 -83 l 56 28 l 256 28 l 256 944 l 57 944 l 57 1056 l 472 1056 z "},"^":{"ha":833,"x_min":0,"x_max":0,"o":""},"_":{"ha":833,"x_min":144,"x_max":654,"o":"m 144 0 l 654 0 l 654 -76 l 144 -76 l 144 0 z "},"`":{"ha":418,"x_min":56,"x_max":363,"o":"m 363 832 l 242 832 l 56 1035 l 269 1035 l 363 832 z "},"a":{"ha":774,"x_min":28,"x_max":718,"o":"m 718 694 l 718 0 l 524 0 l 524 106 q 326 -28 474 -28 q 204 -2 258 -28 q 117 63 150 24 q 64 156 85 103 q 35 260 43 210 q 28 365 28 311 q 44 492 28 432 q 93 604 60 551 q 188 688 126 657 q 332 719 250 719 q 524 596 469 719 l 524 694 l 718 694 m 507 240 l 507 471 q 456 544 486 522 q 374 567 426 567 q 299 547 329 567 q 257 492 269 528 q 240 425 244 456 q 236 353 236 394 q 382 125 236 125 q 507 240 463 125 z "},"b":{"ha":769,"x_min":56,"x_max":714,"o":"m 56 972 l 260 972 l 260 617 q 438 719 319 719 q 549 699 500 719 q 628 644 597 678 q 678 563 658 610 q 706 467 699 515 q 714 367 714 419 q 698 226 714 293 q 649 101 682 160 q 556 7 617 42 q 414 -28 494 -28 q 295 3 339 -28 q 213 108 251 33 l 213 0 l 56 0 l 56 972 m 263 208 q 268 197 264 206 q 274 184 272 188 q 282 172 276 181 q 292 158 288 163 q 306 147 297 154 q 323 138 314 140 q 344 132 332 135 q 372 129 357 129 q 426 140 403 129 q 463 172 450 150 q 485 213 476 193 q 497 265 493 233 q 501 313 500 296 q 501 357 501 329 q 501 412 501 392 q 493 468 500 432 q 474 525 486 504 q 437 563 463 546 q 375 579 411 579 q 318 569 340 579 q 288 549 296 560 q 273 522 281 538 q 263 503 265 507 l 263 208 z "},"c":{"ha":788,"x_min":56,"x_max":732,"o":"m 496 438 l 496 569 l 278 571 l 278 125 l 496 125 l 496 276 l 732 276 q 628 51 719 129 q 383 -28 536 -28 q 141 74 226 -28 q 56 346 56 175 q 140 619 56 517 q 388 722 224 722 q 631 650 540 722 q 732 438 722 578 l 496 438 z "},"d":{"ha":801,"x_min":56,"x_max":746,"o":"m 746 972 l 746 0 l 585 0 l 585 108 q 383 -28 514 -28 q 252 -4 310 -28 q 158 58 194 19 q 99 149 122 96 q 65 255 75 201 q 56 367 56 308 q 72 487 56 428 q 121 601 88 546 q 216 689 154 656 q 360 722 278 722 q 470 694 421 722 q 538 617 519 665 l 538 972 l 746 972 m 535 207 l 535 486 q 483 558 508 538 q 410 579 458 579 q 338 555 368 579 q 293 494 307 531 q 274 424 279 457 q 268 363 268 392 q 273 293 268 326 q 291 219 278 260 q 335 153 304 178 q 411 129 365 129 q 483 146 460 129 q 535 207 506 163 z "},"e":{"ha":797,"x_min":56,"x_max":742,"o":"m 299 303 l 299 125 l 518 125 l 518 229 l 742 229 q 735 178 742 207 q 706 113 728 150 q 649 44 683 75 q 553 -7 615 14 q 411 -28 490 -28 q 146 80 236 -28 q 56 374 56 188 q 144 621 56 519 q 399 722 232 722 q 553 700 489 722 q 653 643 617 678 q 708 550 689 608 q 733 437 728 492 q 738 303 739 382 l 299 303 m 517 428 l 515 569 l 299 569 l 297 428 l 517 428 z "},"f":{"ha":494,"x_min":56,"x_max":467,"o":"m 467 806 l 346 806 l 346 694 l 467 694 l 467 528 l 346 528 l 346 0 l 138 0 l 138 528 l 56 528 l 56 694 l 138 694 l 138 840 q 176 945 138 918 q 308 972 214 972 l 467 972 l 467 806 z "},"g":{"ha":781,"x_min":42,"x_max":725,"o":"m 42 354 q 56 489 42 428 q 101 604 69 550 q 190 689 132 658 q 328 719 247 719 q 454 688 406 719 q 539 572 503 657 l 539 694 l 725 694 l 725 -157 q 688 -244 725 -210 q 590 -278 651 -278 l 229 -278 l 229 -111 l 508 -111 l 508 74 q 438 7 476 28 q 333 -14 399 -14 q 199 19 257 -14 q 107 108 140 53 q 58 225 74 163 q 42 354 42 288 m 258 351 q 397 139 258 139 q 514 186 472 139 l 514 504 q 401 567 464 567 q 258 351 258 567 z "},"h":{"ha":756,"x_min":56,"x_max":700,"o":"m 700 0 l 492 0 l 492 569 l 264 569 l 264 0 l 56 0 l 56 972 l 253 972 l 253 622 q 335 693 272 664 q 467 722 399 722 q 651 654 603 722 q 700 449 700 586 l 700 0 z "},"i":{"ha":319,"x_min":56,"x_max":264,"o":"m 264 778 l 56 778 l 56 972 l 264 972 l 264 778 m 264 0 l 56 0 l 56 694 l 264 694 l 264 0 z "},"j":{"ha":356,"x_min":-56,"x_max":300,"o":"m 300 778 l 92 778 l 92 972 l 300 972 l 300 778 m 300 694 l 300 -117 q 267 -243 300 -208 q 139 -278 235 -278 l -56 -278 l -56 -114 l 92 -114 l 92 694 l 300 694 z "},"k":{"ha":672,"x_min":56,"x_max":714,"o":"m 714 0 l 471 0 l 264 275 l 264 0 l 56 0 l 56 972 l 264 972 l 264 464 l 457 694 l 700 694 l 422 376 l 714 0 z "},"l":{"ha":319,"x_min":56,"x_max":264,"o":"m 56 972 l 264 972 l 264 0 l 56 0 l 56 972 z "},"m":{"ha":1085,"x_min":56,"x_max":1057,"o":"m 236 694 l 236 621 q 444 722 303 722 q 633 600 572 722 q 710 690 649 658 q 847 722 772 722 q 1016 655 975 722 q 1057 443 1057 588 l 1057 0 l 849 0 l 849 569 l 654 569 l 654 0 l 446 0 l 446 569 l 264 569 l 264 0 l 56 0 l 56 694 l 236 694 z "},"n":{"ha":726,"x_min":56,"x_max":699,"o":"m 233 694 l 233 614 q 454 722 289 722 q 628 668 557 722 q 699 506 699 614 l 699 0 l 490 0 l 490 569 l 264 569 l 264 0 l 56 0 l 56 694 l 233 694 z "},"o":{"ha":786,"x_min":56,"x_max":731,"o":"m 390 722 q 640 616 550 722 q 731 347 731 510 q 638 79 731 185 q 390 -26 544 -26 q 144 80 232 -26 q 56 354 56 186 q 144 618 56 514 q 390 722 233 722 m 261 569 l 261 126 l 525 126 l 525 569 l 261 569 z "},"p":{"ha":768,"x_min":56,"x_max":740,"o":"m 251 694 l 251 601 q 438 722 314 722 q 579 694 519 722 q 674 614 639 665 q 724 497 708 563 q 740 351 740 432 q 726 218 740 281 q 680 98 711 156 q 588 6 649 40 q 443 -28 526 -28 q 347 -4 397 -28 q 267 64 297 19 l 264 -278 l 56 -278 l 56 694 l 251 694 m 264 192 q 389 131 321 131 q 526 357 526 131 q 390 575 526 575 q 313 558 340 575 q 264 508 286 540 l 264 192 z "},"q":{"ha":782,"x_min":56,"x_max":726,"o":"m 531 694 l 726 694 l 726 -278 l 518 -278 l 515 78 q 353 -28 475 -28 q 208 6 269 -28 q 116 98 147 40 q 70 218 85 156 q 56 351 56 281 q 125 621 56 519 q 344 722 194 722 q 531 601 468 722 l 531 694 m 518 183 l 518 521 q 406 575 482 575 q 269 357 269 575 q 274 290 269 324 q 292 218 279 257 q 335 155 306 179 q 407 131 365 131 q 460 139 438 131 q 491 155 482 147 q 518 183 500 163 z "},"r":{"ha":494,"x_min":56,"x_max":481,"o":"m 260 693 l 260 572 q 310 678 278 639 q 404 718 343 718 l 481 718 l 481 511 l 264 511 l 264 0 l 56 0 l 56 693 l 260 693 z "},"s":{"ha":682,"x_min":31,"x_max":665,"o":"m 443 476 l 442 569 l 265 569 l 264 513 q 294 458 264 478 q 368 431 324 438 q 465 413 413 425 q 561 386 517 401 q 635 330 606 371 q 665 226 665 289 q 581 37 665 101 q 353 -28 496 -28 q 239 -16 292 -28 q 137 24 186 -4 q 59 107 88 51 q 31 240 31 163 l 260 240 l 260 125 l 442 125 l 443 192 q 414 240 443 221 q 340 267 385 258 q 244 290 296 275 q 147 326 192 306 q 72 393 101 346 q 42 508 42 440 q 126 668 42 614 q 339 722 210 722 q 429 719 390 722 q 515 701 468 715 q 593 661 563 686 q 644 589 624 636 q 665 476 665 542 l 443 476 z "},"t":{"ha":542,"x_min":42,"x_max":500,"o":"m 500 528 l 349 528 l 349 167 l 500 167 l 500 0 l 289 0 q 140 172 140 0 l 140 528 l 42 528 l 42 694 l 140 694 l 140 972 l 349 972 l 349 694 l 500 694 l 500 528 z "},"u":{"ha":767,"x_min":56,"x_max":711,"o":"m 544 0 l 544 89 q 464 0 513 28 q 314 -28 415 -28 q 120 41 185 -28 q 56 219 56 110 l 56 694 l 260 694 l 260 125 l 503 125 l 503 694 l 711 694 l 711 0 l 544 0 z "},"v":{"ha":661,"x_min":-14,"x_max":675,"o":"m 433 0 l 219 0 l -14 694 l 194 694 l 328 189 l 467 694 l 675 694 l 433 0 z "},"w":{"ha":989,"x_min":-14,"x_max":1003,"o":"m 803 0 l 622 0 l 476 453 l 353 0 l 172 0 l -14 694 l 174 694 l 281 246 l 394 694 l 582 694 l 704 244 l 814 694 l 1003 694 l 803 0 z "},"x":{"ha":604,"x_min":-14,"x_max":660,"o":"m 660 0 l 450 0 l 321 199 l 196 0 l -14 0 l 214 364 l 0 694 l 210 694 l 318 528 l 422 694 l 632 694 l 424 364 l 660 0 z "},"y":{"ha":735,"x_min":56,"x_max":735,"o":"m 526 -42 q 437 -224 496 -171 q 267 -278 378 -278 l 125 -278 l 125 -111 l 299 -111 l 299 0 l 56 694 l 276 694 l 411 167 l 526 694 l 735 694 l 526 -42 z "},"z":{"ha":661,"x_min":56,"x_max":606,"o":"m 583 539 l 278 167 l 606 167 l 606 0 l 56 0 l 56 167 l 353 528 l 68 528 l 68 694 l 583 694 l 583 539 z "},"{":{"ha":603,"x_min":56,"x_max":547,"o":"m 511 -139 q 204 169 204 -139 q 202 253 204 226 q 193 309 200 281 q 170 349 186 338 q 127 368 154 360 q 56 379 100 376 l 56 611 q 128 626 99 613 q 172 657 157 640 q 195 706 188 674 q 203 759 203 739 q 204 819 204 779 q 204 831 204 826 q 269 1040 204 968 q 511 1111 335 1111 l 547 1111 l 547 972 l 408 972 q 163 493 408 571 q 406 0 406 432 l 547 0 l 547 -139 l 511 -139 z "},"|":{"ha":833,"x_min":125,"x_max":292,"o":"m 292 0 l 125 0 l 125 953 l 292 953 l 292 0 z "},"}":{"ha":603,"x_min":56,"x_max":547,"o":"m 92 -139 l 56 -139 l 56 0 l 197 0 q 440 493 197 432 q 194 972 194 571 l 56 972 l 56 1111 l 92 1111 q 333 1040 268 1111 q 399 831 399 968 q 415 683 399 721 q 547 611 446 615 l 547 379 q 476 368 503 376 q 433 349 449 360 q 410 309 417 338 q 401 253 403 281 q 399 169 399 226 q 92 -139 399 -139 z "},"~":{"ha":719,"x_min":50,"x_max":664,"o":"m 664 558 q 507 336 664 336 q 453 342 474 336 q 357 376 432 349 q 229 410 271 410 q 168 335 168 410 l 56 335 q 97 504 50 446 q 217 558 142 558 q 361 517 268 558 q 478 481 439 481 q 550 558 540 481 l 664 558 z "},"¡":{"ha":319,"x_min":56,"x_max":264,"o":"m 63 778 l 63 972 l 257 972 l 257 778 l 63 778 m 56 0 l 90 646 l 229 646 l 264 0 l 56 0 z "},"¢":{"ha":774,"x_min":56,"x_max":732,"o":"m 496 258 l 496 410 l 732 410 q 492 117 711 169 l 492 -3 l 283 -3 l 283 118 q 115 243 174 147 q 56 479 56 339 q 113 715 56 619 q 283 843 169 811 l 283 972 l 492 972 l 492 846 q 732 571 715 799 l 496 571 l 496 703 l 278 704 l 278 258 l 496 258 z "},"£":{"ha":890,"x_min":-79,"x_max":767,"o":"m 324 438 l 324 188 l 731 188 l 731 0 l 81 0 l 79 438 l -79 438 l -79 521 l 79 521 l 78 726 q 177 924 78 847 q 433 1000 276 1000 q 516 991 474 1000 q 604 958 558 982 q 685 897 650 933 q 744 801 721 861 q 767 667 767 742 l 531 667 l 531 819 l 324 819 l 324 521 l 642 521 l 642 438 l 324 438 z "},"¤":{"ha":1146,"x_min":56,"x_max":1090,"o":"m 207 128 q 131 203 207 128 q 56 493 56 279 q 206 852 56 707 q 572 997 357 997 q 939 852 788 997 q 1090 493 1090 707 q 938 128 1090 279 q 572 -24 786 -24 q 207 128 358 -24 m 300 760 l 300 215 l 844 215 l 844 760 l 300 760 z "},"¥":{"ha":858,"x_min":28,"x_max":858,"o":"m 858 972 l 603 483 l 756 483 l 756 400 l 560 400 l 560 290 l 756 290 l 756 207 l 560 207 l 560 0 l 338 0 l 338 207 l 132 207 l 132 290 l 338 290 l 338 400 l 132 400 l 132 483 l 293 483 l 28 972 l 285 972 l 456 610 l 601 972 l 858 972 z "},"¦":{"ha":833,"x_min":125,"x_max":292,"o":"m 292 571 l 125 571 l 125 953 l 292 953 l 292 571 m 292 0 l 125 0 l 125 382 l 292 382 l 292 0 z "},"§":{"ha":890,"x_min":0,"x_max":0,"o":""},"¨":{"ha":590,"x_min":69,"x_max":535,"o":"m 69 863 l 69 1043 l 257 1043 l 257 863 l 69 863 m 347 863 l 347 1043 l 535 1043 l 535 863 l 347 863 z "},"©":{"ha":1146,"x_min":56,"x_max":1090,"o":"m 207 128 q 131 203 207 128 q 56 493 56 279 q 206 852 56 707 q 572 997 357 997 q 939 852 788 997 q 1090 493 1090 707 q 938 128 1090 279 q 572 -24 786 -24 q 207 128 358 -24 m 300 760 l 300 215 l 844 215 l 844 760 l 300 760 m 635 542 l 635 615 l 496 615 l 496 357 l 635 357 l 635 426 l 728 426 q 682 320 728 357 q 561 283 636 283 q 431 342 475 283 q 388 493 388 400 q 433 633 388 576 q 564 689 478 689 q 685 649 642 689 q 728 542 728 610 l 635 542 z "},"«":{"ha":888,"x_min":56,"x_max":832,"o":"m 314 694 l 488 694 l 226 360 l 488 0 l 314 0 l 56 360 l 314 694 m 658 694 l 832 694 l 571 360 l 832 0 l 658 0 l 400 360 l 658 694 z "},"¬":{"ha":833,"x_min":56,"x_max":749,"o":"m 56 393 l 56 532 l 749 532 l 749 118 l 610 119 l 610 393 l 56 393 z "},"®":{"ha":1146,"x_min":56,"x_max":1090,"o":"m 206 852 q 282 925 206 852 q 572 997 357 997 q 939 852 788 997 q 1090 493 1090 707 q 938 128 1090 279 q 572 -24 786 -24 q 207 128 358 -24 q 56 493 56 279 q 206 852 56 707 m 844 215 l 844 760 l 300 760 l 300 215 l 844 215 m 513 440 l 513 294 l 425 294 l 425 678 l 569 678 q 681 644 639 678 q 724 557 724 611 q 653 453 724 478 l 735 294 l 636 294 l 564 440 l 513 440 m 513 604 l 513 503 l 567 503 q 631 556 631 503 q 569 604 631 604 l 513 604 z "},"¯":{"ha":549,"x_min":56,"x_max":493,"o":"m 56 863 l 56 989 l 493 989 l 493 863 l 56 863 z "},"°":{"ha":1147,"x_min":308,"x_max":838,"o":"m 308 739 q 385 923 308 849 q 574 997 463 997 q 760 923 683 997 q 838 739 838 849 q 760 553 838 631 q 574 475 683 475 q 386 553 464 475 q 308 739 308 631 m 433 876 l 433 597 l 713 597 l 713 876 l 433 876 z "},"±":{"ha":868,"x_min":56,"x_max":813,"o":"m 507 532 l 813 532 l 813 386 l 507 386 l 507 82 l 361 82 l 361 386 l 56 386 l 56 532 l 361 532 l 361 836 l 507 836 l 507 532 m 179 -76 l 179 0 l 689 0 l 689 -76 l 179 -76 z "},"´":{"ha":392,"x_min":56,"x_max":336,"o":"m 56 832 l 122 1035 l 336 1035 l 176 832 l 56 832 z "},"¶":{"ha":1161,"x_min":56,"x_max":1106,"o":"m 556 0 l 556 331 l 413 331 q 155 412 254 331 q 56 653 56 493 q 155 896 56 819 q 419 972 254 972 l 778 972 l 778 0 l 556 0 m 897 972 l 1106 972 l 1106 0 l 897 0 l 897 972 m 444 518 l 556 518 l 556 785 l 446 785 q 292 644 292 785 q 444 518 292 518 z "},"·":{"ha":306,"x_min":56,"x_max":250,"o":"m 56 496 l 250 496 l 250 301 l 56 301 l 56 496 z "},"¸":{"ha":453,"x_min":56,"x_max":397,"o":"m 56 -274 l 56 -201 l 253 -201 l 253 -108 l 72 -108 l 140 51 l 260 51 l 221 -33 l 253 -33 q 362 -65 326 -33 q 397 -150 397 -97 q 160 -285 397 -285 q 56 -274 106 -285 z "},"»":{"ha":888,"x_min":56,"x_max":832,"o":"m 229 694 l 488 360 l 229 0 l 56 0 l 317 360 l 56 694 l 229 694 m 574 694 l 832 360 l 574 0 l 400 0 l 661 360 l 400 694 l 574 694 z "},"¼":{"ha":1204,"x_min":56,"x_max":1149,"o":"m 711 1028 l 824 1028 l 329 -97 l 217 -97 l 711 1028 m 56 879 l 56 972 l 238 972 l 238 486 l 126 486 l 126 879 l 56 879 m 760 89 l 761 486 l 865 486 l 865 183 l 968 182 l 968 486 l 1072 486 l 1072 182 l 1149 182 l 1149 89 l 1072 89 l 1072 0 l 968 0 l 968 89 l 760 89 z "},"½":{"ha":1042,"x_min":56,"x_max":1014,"o":"m 654 1028 l 767 1028 l 272 -97 l 160 -97 l 654 1028 m 56 879 l 56 972 l 238 972 l 238 486 l 126 486 l 126 879 l 56 879 m 1014 0 l 672 0 l 672 97 l 825 235 q 859 269 849 258 q 879 301 869 279 q 889 347 889 322 l 889 407 l 778 407 l 778 326 l 660 326 q 707 456 660 413 q 839 500 754 500 q 965 460 922 500 q 1007 347 1007 419 q 1000 299 1007 322 q 987 261 993 276 q 958 222 981 246 q 924 187 935 197 q 874 142 913 176 q 821 94 836 108 l 1014 94 l 1014 0 z "},"¾":{"ha":1335,"x_min":56,"x_max":1279,"o":"m 793 1028 l 906 1028 l 411 -97 l 299 -97 l 793 1028 m 285 792 l 285 908 l 181 908 l 182 835 l 57 835 q 107 961 57 921 q 232 1001 157 1001 q 353 967 303 1001 q 403 858 403 932 q 329 744 403 774 q 386 708 363 735 q 410 639 410 681 q 359 527 410 567 q 232 488 308 488 q 106 531 157 488 q 56 654 56 574 l 181 654 l 181 578 l 285 578 l 285 699 l 203 699 l 203 792 l 285 792 m 835 101 l 835 556 l 954 556 l 954 210 l 1072 208 l 1072 556 l 1192 556 l 1192 208 l 1279 208 l 1279 101 l 1192 101 l 1192 0 l 1072 0 l 1072 101 l 835 101 z "},"¿":{"ha":781,"x_min":56,"x_max":725,"o":"m 485 778 l 290 778 l 290 972 l 485 972 l 485 778 m 361 364 q 321 333 332 343 q 296 297 310 324 q 282 235 282 271 l 282 160 l 503 160 l 503 304 l 725 304 q 394 -28 725 -28 q 142 44 228 -28 q 56 249 56 117 q 183 460 56 354 q 229 499 214 483 q 262 551 244 514 q 279 633 279 588 l 486 633 q 463 470 486 518 q 361 364 440 422 z "},"À":{"ha":871,"x_min":-28,"x_max":899,"o":"m 589 1110 l 468 1110 l 282 1313 l 496 1313 l 589 1110 m 899 0 l 671 0 l 600 196 l 257 196 l 194 0 l -28 0 l 303 972 l 560 972 l 899 0 m 549 383 l 433 775 l 318 383 l 549 383 z "},"Á":{"ha":871,"x_min":-28,"x_max":899,"o":"m 351 1110 l 418 1313 l 632 1313 l 472 1110 l 351 1110 m 899 0 l 671 0 l 600 196 l 257 196 l 194 0 l -28 0 l 303 972 l 560 972 l 899 0 m 549 383 l 433 775 l 318 383 l 549 383 z "},"Â":{"ha":871,"x_min":-28,"x_max":899,"o":"m 206 1113 l 349 1313 l 525 1313 l 665 1113 l 513 1113 l 433 1214 l 360 1113 l 206 1113 m 899 0 l 671 0 l 600 196 l 257 196 l 194 0 l -28 0 l 303 972 l 560 972 l 899 0 m 549 383 l 433 775 l 318 383 l 549 383 z "},"Ã":{"ha":871,"x_min":-28,"x_max":899,"o":"m 671 1292 q 550 1121 671 1121 q 435 1151 514 1121 q 336 1178 365 1178 q 289 1119 289 1178 l 203 1119 q 235 1250 199 1206 q 326 1292 268 1292 q 438 1260 365 1292 q 528 1232 497 1232 q 583 1292 575 1232 l 671 1292 m 899 0 l 671 0 l 600 196 l 257 196 l 194 0 l -28 0 l 303 972 l 560 972 l 899 0 m 549 383 l 433 775 l 318 383 l 549 383 z "},"Ä":{"ha":871,"x_min":-28,"x_max":899,"o":"m 210 1069 l 210 1250 l 397 1250 l 397 1069 l 210 1069 m 488 1069 l 488 1250 l 675 1250 l 675 1069 l 488 1069 m 899 0 l 671 0 l 600 196 l 257 196 l 194 0 l -28 0 l 303 972 l 560 972 l 899 0 m 549 383 l 433 775 l 318 383 l 549 383 z "},"Å":{"ha":871,"x_min":-28,"x_max":899,"o":"m 582 1185 q 539 1082 582 1125 q 436 1039 496 1039 q 333 1082 376 1039 q 289 1185 289 1125 q 332 1288 289 1244 q 436 1332 375 1332 q 539 1289 496 1332 q 582 1185 582 1246 m 383 1236 l 383 1133 l 486 1133 l 486 1236 l 383 1236 m 899 0 l 671 0 l 600 196 l 257 196 l 194 0 l -28 0 l 303 972 l 560 972 l 899 0 m 549 383 l 433 775 l 318 383 l 549 383 z "},"Æ":{"ha":1326,"x_min":-28,"x_max":1271,"o":"m 1271 785 l 840 785 l 840 588 l 1174 588 l 1174 400 l 840 400 l 840 188 l 1271 188 l 1271 0 l 614 0 l 614 196 l 303 196 l 208 0 l -28 0 l 456 972 l 1271 972 l 1271 785 m 618 383 l 618 863 l 369 383 l 618 383 z "},"Ç":{"ha":975,"x_min":56,"x_max":919,"o":"m 683 160 l 683 333 l 919 333 q 810 72 919 164 q 519 -28 701 -21 l 508 -51 l 540 -51 q 649 -83 614 -51 q 685 -168 685 -115 q 447 -303 685 -303 q 343 -292 393 -303 l 343 -219 l 540 -219 l 540 -126 l 360 -126 l 406 -21 q 144 151 232 10 q 56 504 56 293 q 102 750 56 640 q 252 930 149 860 q 503 1000 356 1000 q 810 900 701 1000 q 919 625 919 800 l 683 625 l 683 813 l 332 813 l 332 160 l 683 160 z "},"È":{"ha":764,"x_min":56,"x_max":708,"o":"m 535 1110 l 414 1110 l 228 1313 l 442 1313 l 535 1110 m 278 785 l 278 588 l 611 588 l 611 400 l 278 400 l 278 188 l 708 188 l 708 0 l 56 0 l 56 972 l 708 972 l 708 785 l 278 785 z "},"É":{"ha":764,"x_min":56,"x_max":708,"o":"m 297 1110 l 364 1313 l 578 1313 l 418 1110 l 297 1110 m 278 785 l 278 588 l 611 588 l 611 400 l 278 400 l 278 188 l 708 188 l 708 0 l 56 0 l 56 972 l 708 972 l 708 785 l 278 785 z "},"Ê":{"ha":764,"x_min":56,"x_max":708,"o":"m 151 1113 l 294 1313 l 471 1313 l 611 1113 l 458 1113 l 379 1214 l 306 1113 l 151 1113 m 278 785 l 278 588 l 611 588 l 611 400 l 278 400 l 278 188 l 708 188 l 708 0 l 56 0 l 56 972 l 708 972 l 708 785 l 278 785 z "},"Ë":{"ha":764,"x_min":56,"x_max":708,"o":"m 156 1069 l 156 1250 l 343 1250 l 343 1069 l 156 1069 m 433 1069 l 433 1250 l 621 1250 l 621 1069 l 433 1069 m 278 785 l 278 588 l 611 588 l 611 400 l 278 400 l 278 188 l 708 188 l 708 0 l 56 0 l 56 972 l 708 972 l 708 785 l 278 785 z "},"Ì":{"ha":333,"x_min":13,"x_max":319,"o":"m 319 1110 l 199 1110 l 13 1313 l 226 1313 l 319 1110 m 278 0 l 56 0 l 56 972 l 278 972 l 278 0 z "},"Í":{"ha":333,"x_min":56,"x_max":363,"o":"m 82 1110 l 149 1313 l 363 1313 l 203 1110 l 82 1110 m 278 0 l 56 0 l 56 972 l 278 972 l 278 0 z "},"Î":{"ha":333,"x_min":-64,"x_max":396,"o":"m -64 1113 l 79 1313 l 256 1313 l 396 1113 l 243 1113 l 164 1214 l 90 1113 l -64 1113 m 278 0 l 56 0 l 56 972 l 278 972 l 278 0 z "},"Ï":{"ha":333,"x_min":-60,"x_max":406,"o":"m -60 1069 l -60 1250 l 128 1250 l 128 1069 l -60 1069 m 218 1069 l 218 1250 l 406 1250 l 406 1069 l 218 1069 m 278 0 l 56 0 l 56 972 l 278 972 l 278 0 z "},"Ð":{"ha":943,"x_min":56,"x_max":888,"o":"m 360 972 q 749 849 610 972 q 888 493 888 726 q 768 131 888 263 q 425 0 649 0 l 56 0 l 56 972 l 360 972 m 278 186 l 394 186 q 596 270 526 186 q 665 496 665 354 q 594 704 665 624 q 396 785 522 785 l 278 785 l 278 186 z "},"Ñ":{"ha":917,"x_min":56,"x_max":861,"o":"m 693 1292 q 572 1121 693 1121 q 457 1151 536 1121 q 358 1178 388 1178 q 311 1119 311 1178 l 225 1119 q 257 1250 221 1206 q 349 1292 290 1292 q 460 1260 388 1292 q 550 1232 519 1232 q 606 1292 597 1232 l 693 1292 m 861 0 l 657 0 l 264 679 l 264 0 l 56 0 l 56 972 l 306 972 l 653 379 l 653 972 l 861 972 l 861 0 z "},"Ò":{"ha":1015,"x_min":56,"x_max":960,"o":"m 661 1110 l 540 1110 l 354 1313 l 568 1313 l 661 1110 m 511 -28 q 170 113 285 -28 q 56 478 56 253 q 81 678 56 586 q 159 843 107 769 q 301 958 211 917 q 511 1000 392 1000 q 847 856 733 1000 q 960 478 960 711 q 847 112 960 251 q 511 -28 733 -28 m 290 813 l 290 153 l 726 153 l 726 813 l 290 813 z "},"Ó":{"ha":1015,"x_min":56,"x_max":960,"o":"m 424 1110 l 490 1313 l 704 1313 l 544 1110 l 424 1110 m 511 -28 q 170 113 285 -28 q 56 478 56 253 q 81 678 56 586 q 159 843 107 769 q 301 958 211 917 q 511 1000 392 1000 q 847 856 733 1000 q 960 478 960 711 q 847 112 960 251 q 511 -28 733 -28 m 290 813 l 290 153 l 726 153 l 726 813 l 290 813 z "},"Ô":{"ha":1015,"x_min":56,"x_max":960,"o":"m 278 1113 l 421 1313 l 597 1313 l 738 1113 l 585 1113 l 506 1214 l 432 1113 l 278 1113 m 511 -28 q 170 113 285 -28 q 56 478 56 253 q 81 678 56 586 q 159 843 107 769 q 301 958 211 917 q 511 1000 392 1000 q 847 856 733 1000 q 960 478 960 711 q 847 112 960 251 q 511 -28 733 -28 m 290 813 l 290 153 l 726 153 l 726 813 l 290 813 z "},"Õ":{"ha":1015,"x_min":56,"x_max":960,"o":"m 743 1292 q 622 1121 743 1121 q 507 1151 586 1121 q 408 1178 438 1178 q 361 1119 361 1178 l 275 1119 q 307 1250 271 1206 q 399 1292 340 1292 q 510 1260 438 1292 q 600 1232 569 1232 q 656 1292 647 1232 l 743 1292 m 511 -28 q 170 113 285 -28 q 56 478 56 253 q 81 678 56 586 q 159 843 107 769 q 301 958 211 917 q 511 1000 392 1000 q 847 856 733 1000 q 960 478 960 711 q 847 112 960 251 q 511 -28 733 -28 m 290 813 l 290 153 l 726 153 l 726 813 l 290 813 z "},"Ö":{"ha":1015,"x_min":56,"x_max":960,"o":"m 282 1069 l 282 1250 l 469 1250 l 469 1069 l 282 1069 m 560 1069 l 560 1250 l 747 1250 l 747 1069 l 560 1069 m 511 -28 q 170 113 285 -28 q 56 478 56 253 q 81 678 56 586 q 159 843 107 769 q 301 958 211 917 q 511 1000 392 1000 q 847 856 733 1000 q 960 478 960 711 q 847 112 960 251 q 511 -28 733 -28 m 290 813 l 290 153 l 726 153 l 726 813 l 290 813 z "},"×":{"ha":750,"x_min":56,"x_max":694,"o":"m 694 678 l 479 463 l 693 247 l 590 144 l 376 360 l 160 143 l 56 246 l 272 463 l 57 678 l 160 781 l 375 565 l 592 781 l 694 678 z "},"Ø":{"ha":1015,"x_min":56,"x_max":960,"o":"m 511 -28 q 170 113 285 -28 q 56 478 56 253 q 81 678 56 586 q 159 843 107 769 q 301 958 211 917 q 511 1000 392 1000 q 847 856 733 1000 q 960 478 960 711 q 847 112 960 251 q 511 -28 733 -28 m 290 813 l 290 153 l 726 153 l 726 813 l 290 813 z "},"Ù":{"ha":883,"x_min":56,"x_max":828,"o":"m 594 1110 l 474 1110 l 288 1313 l 501 1313 l 594 1110 m 828 300 q 743 44 828 117 q 440 -28 658 -28 q 141 44 226 -28 q 56 300 56 115 l 56 972 l 278 972 l 278 160 l 606 160 l 606 972 l 828 972 l 828 300 z "},"Ú":{"ha":883,"x_min":56,"x_max":828,"o":"m 357 1110 l 424 1313 l 638 1313 l 478 1110 l 357 1110 m 828 300 q 743 44 828 117 q 440 -28 658 -28 q 141 44 226 -28 q 56 300 56 115 l 56 972 l 278 972 l 278 160 l 606 160 l 606 972 l 828 972 l 828 300 z "},"Û":{"ha":883,"x_min":56,"x_max":828,"o":"m 211 1113 l 354 1313 l 531 1313 l 671 1113 l 518 1113 l 439 1214 l 365 1113 l 211 1113 m 828 300 q 743 44 828 117 q 440 -28 658 -28 q 141 44 226 -28 q 56 300 56 115 l 56 972 l 278 972 l 278 160 l 606 160 l 606 972 l 828 972 l 828 300 z "},"Ü":{"ha":883,"x_min":56,"x_max":828,"o":"m 215 1069 l 215 1250 l 403 1250 l 403 1069 l 215 1069 m 493 1069 l 493 1250 l 681 1250 l 681 1069 l 493 1069 m 828 300 q 743 44 828 117 q 440 -28 658 -28 q 141 44 226 -28 q 56 300 56 115 l 56 972 l 278 972 l 278 160 l 606 160 l 606 972 l 828 972 l 828 300 z "},"Ý":{"ha":831,"x_min":28,"x_max":858,"o":"m 363 1110 l 429 1313 l 643 1313 l 483 1110 l 363 1110 m 560 401 l 560 0 l 338 0 l 338 401 l 28 972 l 285 972 l 456 610 l 601 972 l 858 972 l 560 401 z "},"Þ":{"ha":808,"x_min":56,"x_max":792,"o":"m 56 0 l 56 972 l 276 972 l 276 807 l 414 807 q 690 731 589 807 q 792 488 792 654 q 421 165 792 165 l 278 165 l 278 0 l 56 0 m 278 353 l 389 353 q 556 479 556 353 q 511 590 556 560 q 388 619 467 619 l 278 619 l 278 353 z "},"ß":{"ha":874,"x_min":56,"x_max":818,"o":"m 603 594 l 603 813 l 306 813 l 306 0 l 56 0 l 56 653 q 163 910 56 821 q 439 1000 269 1000 q 707 933 610 1000 q 804 735 804 865 q 761 589 804 653 q 657 501 718 525 q 818 263 818 456 q 747 71 818 142 q 553 0 676 0 l 418 1 l 418 181 l 603 181 l 603 407 l 418 407 l 418 594 l 603 594 z "},"à":{"ha":774,"x_min":28,"x_max":718,"o":"m 513 832 l 392 832 l 206 1035 l 419 1035 l 513 832 m 718 694 l 718 0 l 524 0 l 524 106 q 326 -28 474 -28 q 204 -2 258 -28 q 117 63 150 24 q 64 156 85 103 q 35 260 43 210 q 28 365 28 311 q 44 492 28 432 q 93 604 60 551 q 188 688 126 657 q 332 719 250 719 q 524 596 469 719 l 524 694 l 718 694 m 507 240 l 507 471 q 456 544 486 522 q 374 567 426 567 q 299 547 329 567 q 257 492 269 528 q 240 425 244 456 q 236 353 236 394 q 382 125 236 125 q 507 240 463 125 z "},"á":{"ha":774,"x_min":28,"x_max":718,"o":"m 275 832 l 342 1035 l 556 1035 l 396 832 l 275 832 m 718 694 l 718 0 l 524 0 l 524 106 q 326 -28 474 -28 q 204 -2 258 -28 q 117 63 150 24 q 64 156 85 103 q 35 260 43 210 q 28 365 28 311 q 44 492 28 432 q 93 604 60 551 q 188 688 126 657 q 332 719 250 719 q 524 596 469 719 l 524 694 l 718 694 m 507 240 l 507 471 q 456 544 486 522 q 374 567 426 567 q 299 547 329 567 q 257 492 269 528 q 240 425 244 456 q 236 353 236 394 q 382 125 236 125 q 507 240 463 125 z "},"â":{"ha":774,"x_min":28,"x_max":718,"o":"m 129 835 l 272 1035 l 449 1035 l 589 835 l 436 835 l 357 936 l 283 835 l 129 835 m 718 694 l 718 0 l 524 0 l 524 106 q 326 -28 474 -28 q 204 -2 258 -28 q 117 63 150 24 q 64 156 85 103 q 35 260 43 210 q 28 365 28 311 q 44 492 28 432 q 93 604 60 551 q 188 688 126 657 q 332 719 250 719 q 524 596 469 719 l 524 694 l 718 694 m 507 240 l 507 471 q 456 544 486 522 q 374 567 426 567 q 299 547 329 567 q 257 492 269 528 q 240 425 244 456 q 236 353 236 394 q 382 125 236 125 q 507 240 463 125 z "},"ã":{"ha":774,"x_min":28,"x_max":718,"o":"m 594 1014 q 474 843 594 843 q 358 874 438 843 q 260 900 289 900 q 213 842 213 900 l 126 842 q 158 972 122 928 q 250 1014 192 1014 q 361 982 289 1014 q 451 954 421 954 q 507 1014 499 954 l 594 1014 m 718 694 l 718 0 l 524 0 l 524 106 q 326 -28 474 -28 q 204 -2 258 -28 q 117 63 150 24 q 64 156 85 103 q 35 260 43 210 q 28 365 28 311 q 44 492 28 432 q 93 604 60 551 q 188 688 126 657 q 332 719 250 719 q 524 596 469 719 l 524 694 l 718 694 m 507 240 l 507 471 q 456 544 486 522 q 374 567 426 567 q 299 547 329 567 q 257 492 269 528 q 240 425 244 456 q 236 353 236 394 q 382 125 236 125 q 507 240 463 125 z "},"ä":{"ha":774,"x_min":28,"x_max":718,"o":"m 133 792 l 133 972 l 321 972 l 321 792 l 133 792 m 411 792 l 411 972 l 599 972 l 599 792 l 411 792 m 718 694 l 718 0 l 524 0 l 524 106 q 326 -28 474 -28 q 204 -2 258 -28 q 117 63 150 24 q 64 156 85 103 q 35 260 43 210 q 28 365 28 311 q 44 492 28 432 q 93 604 60 551 q 188 688 126 657 q 332 719 250 719 q 524 596 469 719 l 524 694 l 718 694 m 507 240 l 507 471 q 456 544 486 522 q 374 567 426 567 q 299 547 329 567 q 257 492 269 528 q 240 425 244 456 q 236 353 236 394 q 382 125 236 125 q 507 240 463 125 z "},"å":{"ha":774,"x_min":28,"x_max":718,"o":"m 506 907 q 463 804 506 847 q 360 761 419 761 q 256 804 300 761 q 213 907 213 847 q 256 1010 213 967 q 360 1054 300 1054 q 463 1011 419 1054 q 506 907 506 968 m 307 958 l 307 856 l 410 856 l 410 958 l 307 958 m 718 694 l 718 0 l 524 0 l 524 106 q 326 -28 474 -28 q 204 -2 258 -28 q 117 63 150 24 q 64 156 85 103 q 35 260 43 210 q 28 365 28 311 q 44 492 28 432 q 93 604 60 551 q 188 688 126 657 q 332 719 250 719 q 524 596 469 719 l 524 694 l 718 694 m 507 240 l 507 471 q 456 544 486 522 q 374 567 426 567 q 299 547 329 567 q 257 492 269 528 q 240 425 244 456 q 236 353 236 394 q 382 125 236 125 q 507 240 463 125 z "},"æ":{"ha":1385,"x_min":28,"x_max":1329,"o":"m 1106 228 l 1329 228 q 1322 177 1329 206 q 1293 111 1315 149 q 1237 43 1271 74 q 1140 -8 1203 13 q 999 -29 1078 -29 q 718 97 810 -29 l 718 0 l 524 0 l 524 106 q 326 -28 474 -28 q 204 -2 258 -28 q 117 63 150 24 q 64 156 85 103 q 35 260 43 210 q 28 365 28 311 q 44 492 28 432 q 93 604 60 551 q 188 688 126 657 q 332 719 250 719 q 524 596 469 719 l 524 694 l 718 694 l 718 604 q 986 721 810 721 q 1140 699 1076 721 q 1240 642 1204 676 q 1296 549 1276 607 q 1321 435 1315 490 q 1325 301 1326 381 l 886 301 l 886 124 l 1106 124 l 1106 228 m 886 568 l 885 426 l 1104 426 l 1103 568 l 886 568 m 507 240 l 507 471 q 456 544 486 522 q 374 567 426 567 q 299 547 329 567 q 257 492 269 528 q 240 425 244 456 q 236 353 236 394 q 382 125 236 125 q 507 240 463 125 z "},"ç":{"ha":788,"x_min":56,"x_max":732,"o":"m 496 125 l 496 276 l 732 276 q 638 60 721 138 q 419 -26 556 -17 l 408 -51 l 440 -51 q 549 -83 514 -51 q 585 -168 585 -115 q 347 -303 585 -303 q 243 -292 293 -303 l 243 -219 l 440 -219 l 440 -126 l 260 -126 l 306 -21 q 120 101 185 4 q 56 346 56 199 q 140 619 56 517 q 388 722 224 722 q 631 650 540 722 q 732 438 722 578 l 496 438 l 496 569 l 278 571 l 278 125 l 496 125 z "},"è":{"ha":797,"x_min":56,"x_max":742,"o":"m 506 832 l 385 832 l 199 1035 l 413 1035 l 506 832 m 299 303 l 299 125 l 518 125 l 518 229 l 742 229 q 735 178 742 207 q 706 113 728 150 q 649 44 683 75 q 553 -7 615 14 q 411 -28 490 -28 q 146 80 236 -28 q 56 374 56 188 q 144 621 56 519 q 399 722 232 722 q 553 700 489 722 q 653 643 617 678 q 708 550 689 608 q 733 437 728 492 q 738 303 739 382 l 299 303 m 517 428 l 515 569 l 299 569 l 297 428 l 517 428 z "},"é":{"ha":797,"x_min":56,"x_max":742,"o":"m 268 832 l 335 1035 l 549 1035 l 389 832 l 268 832 m 299 303 l 299 125 l 518 125 l 518 229 l 742 229 q 735 178 742 207 q 706 113 728 150 q 649 44 683 75 q 553 -7 615 14 q 411 -28 490 -28 q 146 80 236 -28 q 56 374 56 188 q 144 621 56 519 q 399 722 232 722 q 553 700 489 722 q 653 643 617 678 q 708 550 689 608 q 733 437 728 492 q 738 303 739 382 l 299 303 m 517 428 l 515 569 l 299 569 l 297 428 l 517 428 z "},"ê":{"ha":797,"x_min":56,"x_max":742,"o":"m 122 835 l 265 1035 l 442 1035 l 582 835 l 429 835 l 350 936 l 276 835 l 122 835 m 299 303 l 299 125 l 518 125 l 518 229 l 742 229 q 735 178 742 207 q 706 113 728 150 q 649 44 683 75 q 553 -7 615 14 q 411 -28 490 -28 q 146 80 236 -28 q 56 374 56 188 q 144 621 56 519 q 399 722 232 722 q 553 700 489 722 q 653 643 617 678 q 708 550 689 608 q 733 437 728 492 q 738 303 739 382 l 299 303 m 517 428 l 515 569 l 299 569 l 297 428 l 517 428 z "},"ë":{"ha":797,"x_min":56,"x_max":742,"o":"m 126 792 l 126 972 l 314 972 l 314 792 l 126 792 m 404 792 l 404 972 l 592 972 l 592 792 l 404 792 m 299 303 l 299 125 l 518 125 l 518 229 l 742 229 q 735 178 742 207 q 706 113 728 150 q 649 44 683 75 q 553 -7 615 14 q 411 -28 490 -28 q 146 80 236 -28 q 56 374 56 188 q 144 621 56 519 q 399 722 232 722 q 553 700 489 722 q 653 643 617 678 q 708 550 689 608 q 733 437 728 492 q 738 303 739 382 l 299 303 m 517 428 l 515 569 l 299 569 l 297 428 l 517 428 z "},"ì":{"ha":319,"x_min":6,"x_max":313,"o":"m 313 832 l 192 832 l 6 1035 l 219 1035 l 313 832 m 264 0 l 56 0 l 56 694 l 264 694 l 264 0 z "},"í":{"ha":319,"x_min":56,"x_max":356,"o":"m 75 832 l 142 1035 l 356 1035 l 196 832 l 75 832 m 264 0 l 56 0 l 56 694 l 264 694 l 264 0 z "},"î":{"ha":319,"x_min":-71,"x_max":389,"o":"m -71 835 l 72 1035 l 249 1035 l 389 835 l 236 835 l 157 936 l 83 835 l -71 835 m 264 0 l 56 0 l 56 694 l 264 694 l 264 0 z "},"ï":{"ha":319,"x_min":-67,"x_max":399,"o":"m -67 792 l -67 972 l 121 972 l 121 792 l -67 792 m 211 792 l 211 972 l 399 972 l 399 792 l 211 792 m 264 0 l 56 0 l 56 694 l 264 694 l 264 0 z "},"ð":{"ha":869,"x_min":56,"x_max":814,"o":"m 331 667 l 81 667 q 182 911 81 822 q 433 1000 283 1000 q 728 868 643 1000 q 814 486 814 736 q 422 -28 814 -28 q 151 66 246 -28 q 56 306 56 160 q 142 527 56 442 q 353 613 229 613 q 481 583 425 613 q 564 503 538 553 l 564 813 l 333 814 l 331 667 m 569 425 l 282 425 l 282 160 l 569 160 l 569 425 z "},"ñ":{"ha":726,"x_min":56,"x_max":699,"o":"m 613 1014 q 492 843 613 843 q 376 874 456 843 q 278 900 307 900 q 231 842 231 900 l 144 842 q 176 972 140 928 q 268 1014 210 1014 q 379 982 307 1014 q 469 954 439 954 q 525 1014 517 954 l 613 1014 m 233 694 l 233 614 q 454 722 289 722 q 628 668 557 722 q 699 506 699 614 l 699 0 l 490 0 l 490 569 l 264 569 l 264 0 l 56 0 l 56 694 l 233 694 z "},"ò":{"ha":786,"x_min":56,"x_max":731,"o":"m 547 832 l 426 832 l 240 1035 l 454 1035 l 547 832 m 390 722 q 640 616 550 722 q 731 347 731 510 q 638 79 731 185 q 390 -26 544 -26 q 144 80 232 -26 q 56 354 56 186 q 144 618 56 514 q 390 722 233 722 m 261 569 l 261 126 l 525 126 l 525 569 l 261 569 z "},"ó":{"ha":786,"x_min":56,"x_max":731,"o":"m 310 832 l 376 1035 l 590 1035 l 431 832 l 310 832 m 390 722 q 640 616 550 722 q 731 347 731 510 q 638 79 731 185 q 390 -26 544 -26 q 144 80 232 -26 q 56 354 56 186 q 144 618 56 514 q 390 722 233 722 m 261 569 l 261 126 l 525 126 l 525 569 l 261 569 z "},"ô":{"ha":786,"x_min":56,"x_max":731,"o":"m 164 835 l 307 1035 l 483 1035 l 624 835 l 471 835 l 392 936 l 318 835 l 164 835 m 390 722 q 640 616 550 722 q 731 347 731 510 q 638 79 731 185 q 390 -26 544 -26 q 144 80 232 -26 q 56 354 56 186 q 144 618 56 514 q 390 722 233 722 m 261 569 l 261 126 l 525 126 l 525 569 l 261 569 z "},"õ":{"ha":786,"x_min":56,"x_max":731,"o":"m 629 1014 q 508 843 629 843 q 393 874 472 843 q 294 900 324 900 q 247 842 247 900 l 161 842 q 193 972 157 928 q 285 1014 226 1014 q 396 982 324 1014 q 486 954 456 954 q 542 1014 533 954 l 629 1014 m 390 722 q 640 616 550 722 q 731 347 731 510 q 638 79 731 185 q 390 -26 544 -26 q 144 80 232 -26 q 56 354 56 186 q 144 618 56 514 q 390 722 233 722 m 261 569 l 261 126 l 525 126 l 525 569 l 261 569 z "},"ö":{"ha":786,"x_min":56,"x_max":731,"o":"m 168 792 l 168 972 l 356 972 l 356 792 l 168 792 m 446 792 l 446 972 l 633 972 l 633 792 l 446 792 m 390 722 q 640 616 550 722 q 731 347 731 510 q 638 79 731 185 q 390 -26 544 -26 q 144 80 232 -26 q 56 354 56 186 q 144 618 56 514 q 390 722 233 722 m 261 569 l 261 126 l 525 126 l 525 569 l 261 569 z "},"÷":{"ha":867,"x_min":56,"x_max":811,"o":"m 317 740 q 351 823 317 789 q 432 857 385 857 q 514 823 481 857 q 547 742 547 789 q 514 660 547 694 q 432 626 481 626 q 351 660 385 626 q 317 740 317 693 m 56 532 l 811 532 l 811 393 l 56 393 l 56 532 m 317 182 q 351 265 317 231 q 432 299 385 299 q 514 265 481 299 q 547 183 547 231 q 514 102 547 136 q 432 68 481 68 q 351 101 385 68 q 317 182 317 135 z "},"ø":{"ha":786,"x_min":56,"x_max":731,"o":"m 390 722 q 640 616 550 722 q 731 347 731 510 q 638 79 731 185 q 390 -26 544 -26 q 144 80 232 -26 q 56 354 56 186 q 144 618 56 514 q 390 722 233 722 m 261 569 l 261 126 l 525 126 l 525 569 l 261 569 z "},"ù":{"ha":767,"x_min":56,"x_max":711,"o":"m 536 832 l 415 832 l 229 1035 l 443 1035 l 536 832 m 544 0 l 544 89 q 464 0 513 28 q 314 -28 415 -28 q 120 41 185 -28 q 56 219 56 110 l 56 694 l 260 694 l 260 125 l 503 125 l 503 694 l 711 694 l 711 0 l 544 0 z "},"ú":{"ha":767,"x_min":56,"x_max":711,"o":"m 299 832 l 365 1035 l 579 1035 l 419 832 l 299 832 m 544 0 l 544 89 q 464 0 513 28 q 314 -28 415 -28 q 120 41 185 -28 q 56 219 56 110 l 56 694 l 260 694 l 260 125 l 503 125 l 503 694 l 711 694 l 711 0 l 544 0 z "},"û":{"ha":767,"x_min":56,"x_max":711,"o":"m 153 835 l 296 1035 l 472 1035 l 613 835 l 460 835 l 381 936 l 307 835 l 153 835 m 544 0 l 544 89 q 464 0 513 28 q 314 -28 415 -28 q 120 41 185 -28 q 56 219 56 110 l 56 694 l 260 694 l 260 125 l 503 125 l 503 694 l 711 694 l 711 0 l 544 0 z "},"ü":{"ha":767,"x_min":56,"x_max":711,"o":"m 157 792 l 157 972 l 344 972 l 344 792 l 157 792 m 435 792 l 435 972 l 622 972 l 622 792 l 435 792 m 544 0 l 544 89 q 464 0 513 28 q 314 -28 415 -28 q 120 41 185 -28 q 56 219 56 110 l 56 694 l 260 694 l 260 125 l 503 125 l 503 694 l 711 694 l 711 0 l 544 0 z "},"ý":{"ha":735,"x_min":56,"x_max":735,"o":"m 311 832 l 378 1035 l 592 1035 l 432 832 l 311 832 m 526 -42 q 437 -224 496 -171 q 267 -278 378 -278 l 125 -278 l 125 -111 l 299 -111 l 299 0 l 56 694 l 276 694 l 411 167 l 526 694 l 735 694 l 526 -42 z "},"þ":{"ha":796,"x_min":56,"x_max":740,"o":"m 251 972 l 251 601 q 438 722 314 722 q 579 694 519 722 q 674 614 639 665 q 724 497 708 563 q 740 351 740 432 q 732 245 740 296 q 701 143 724 194 q 646 55 679 92 q 556 -5 613 18 q 429 -28 500 -28 q 267 78 307 -28 l 264 -278 l 56 -278 l 56 972 l 251 972 m 264 192 q 277 180 267 189 q 292 167 288 171 q 308 157 297 164 q 325 147 318 150 q 343 138 332 143 q 365 132 354 133 q 389 131 376 131 q 526 357 526 131 q 390 575 526 575 q 264 517 328 575 l 264 192 z "},"ÿ":{"ha":735,"x_min":56,"x_max":735,"o":"m 169 792 l 169 972 l 357 972 l 357 792 l 169 792 m 447 792 l 447 972 l 635 972 l 635 792 l 447 792 m 526 -42 q 437 -224 496 -171 q 267 -278 378 -278 l 125 -278 l 125 -111 l 299 -111 l 299 0 l 56 694 l 276 694 l 411 167 l 526 694 l 735 694 l 526 -42 z "},"Ā":{"ha":871,"x_min":-28,"x_max":899,"o":"m 217 1124 l 217 1250 l 654 1250 l 654 1124 l 217 1124 m 899 0 l 671 0 l 600 196 l 257 196 l 194 0 l -28 0 l 303 972 l 560 972 l 899 0 m 549 383 l 433 775 l 318 383 l 549 383 z "},"ā":{"ha":774,"x_min":28,"x_max":718,"o":"m 140 846 l 140 972 l 578 972 l 578 846 l 140 846 m 718 694 l 718 0 l 524 0 l 524 106 q 326 -28 474 -28 q 204 -2 258 -28 q 117 63 150 24 q 64 156 85 103 q 35 260 43 210 q 28 365 28 311 q 44 492 28 432 q 93 604 60 551 q 188 688 126 657 q 332 719 250 719 q 524 596 469 719 l 524 694 l 718 694 m 507 240 l 507 471 q 456 544 486 522 q 374 567 426 567 q 299 547 329 567 q 257 492 269 528 q 240 425 244 456 q 236 353 236 394 q 382 125 236 125 q 507 240 463 125 z "},"Ă":{"ha":871,"x_min":-28,"x_max":899,"o":"m 360 1313 l 360 1208 l 513 1208 l 513 1313 l 647 1313 q 583 1168 640 1221 q 436 1115 526 1115 q 290 1168 346 1115 q 225 1313 233 1221 l 360 1313 m 899 0 l 671 0 l 600 196 l 257 196 l 194 0 l -28 0 l 303 972 l 560 972 l 899 0 m 549 383 l 433 775 l 318 383 l 549 383 z "},"ă":{"ha":774,"x_min":28,"x_max":718,"o":"m 283 1035 l 283 931 l 436 931 l 436 1035 l 571 1035 q 507 890 564 943 q 360 838 450 838 q 213 890 269 838 q 149 1035 157 943 l 283 1035 m 718 694 l 718 0 l 524 0 l 524 106 q 326 -28 474 -28 q 204 -2 258 -28 q 117 63 150 24 q 64 156 85 103 q 35 260 43 210 q 28 365 28 311 q 44 492 28 432 q 93 604 60 551 q 188 688 126 657 q 332 719 250 719 q 524 596 469 719 l 524 694 l 718 694 m 507 240 l 507 471 q 456 544 486 522 q 374 567 426 567 q 299 547 329 567 q 257 492 269 528 q 240 425 244 456 q 236 353 236 394 q 382 125 236 125 q 507 240 463 125 z "},"Ą":{"ha":871,"x_min":-28,"x_max":899,"o":"m 733 0 l 733 -139 l 863 -139 l 863 -218 q 774 -246 832 -246 q 621 -90 621 -246 q 665 15 621 -33 l 600 196 l 257 196 l 194 0 l -28 0 l 303 972 l 560 972 l 899 0 l 733 0 m 318 383 l 549 383 l 433 775 l 318 383 z "},"ą":{"ha":774,"x_min":28,"x_max":757,"o":"m 628 -139 l 757 -139 l 757 -218 q 668 -246 726 -246 q 515 -90 515 -246 q 547 0 515 -39 l 524 0 l 524 106 q 326 -28 474 -28 q 204 -2 258 -28 q 117 63 150 24 q 64 156 85 103 q 35 260 43 210 q 28 365 28 311 q 44 492 28 432 q 93 604 60 551 q 188 688 126 657 q 332 719 250 719 q 524 596 469 719 l 524 694 l 718 694 l 718 0 l 628 0 l 628 -139 m 507 240 l 507 471 q 456 544 486 522 q 374 567 426 567 q 299 547 329 567 q 257 492 269 528 q 240 425 244 456 q 236 353 236 394 q 382 125 236 125 q 507 240 463 125 z "},"Ć":{"ha":975,"x_min":56,"x_max":919,"o":"m 396 1110 l 463 1313 l 676 1313 l 517 1110 l 396 1110 m 683 625 l 683 813 l 332 813 l 332 160 l 683 160 l 683 333 l 919 333 q 803 65 919 157 q 496 -28 688 -28 q 167 119 278 -28 q 56 504 56 265 q 102 750 56 640 q 252 930 149 860 q 503 1000 356 1000 q 810 900 701 1000 q 919 625 919 800 l 683 625 z "},"ć":{"ha":788,"x_min":56,"x_max":732,"o":"m 303 832 l 369 1035 l 583 1035 l 424 832 l 303 832 m 496 438 l 496 569 l 278 571 l 278 125 l 496 125 l 496 276 l 732 276 q 628 51 719 129 q 383 -28 536 -28 q 141 74 226 -28 q 56 346 56 175 q 140 619 56 517 q 388 722 224 722 q 631 650 540 722 q 732 438 722 578 l 496 438 z "},"Ċ":{"ha":975,"x_min":56,"x_max":919,"o":"m 386 1069 l 386 1250 l 574 1250 l 574 1069 l 386 1069 m 683 625 l 683 813 l 332 813 l 332 160 l 683 160 l 683 333 l 919 333 q 803 65 919 157 q 496 -28 688 -28 q 167 119 278 -28 q 56 504 56 265 q 102 750 56 640 q 252 930 149 860 q 503 1000 356 1000 q 810 900 701 1000 q 919 625 919 800 l 683 625 z "},"ċ":{"ha":788,"x_min":56,"x_max":732,"o":"m 293 792 l 293 972 l 481 972 l 481 792 l 293 792 m 496 438 l 496 569 l 278 571 l 278 125 l 496 125 l 496 276 l 732 276 q 628 51 719 129 q 383 -28 536 -28 q 141 74 226 -28 q 56 346 56 175 q 140 619 56 517 q 388 722 224 722 q 631 650 540 722 q 732 438 722 578 l 496 438 z "},"Č":{"ha":975,"x_min":56,"x_max":919,"o":"m 250 1313 l 404 1313 l 478 1211 l 557 1313 l 710 1313 l 569 1113 l 393 1113 l 250 1313 m 683 625 l 683 813 l 332 813 l 332 160 l 683 160 l 683 333 l 919 333 q 803 65 919 157 q 496 -28 688 -28 q 167 119 278 -28 q 56 504 56 265 q 102 750 56 640 q 252 930 149 860 q 503 1000 356 1000 q 810 900 701 1000 q 919 625 919 800 l 683 625 z "},"č":{"ha":788,"x_min":56,"x_max":732,"o":"m 157 1035 l 311 1035 l 385 933 l 464 1035 l 617 1035 l 476 835 l 300 835 l 157 1035 m 496 438 l 496 569 l 278 571 l 278 125 l 496 125 l 496 276 l 732 276 q 628 51 719 129 q 383 -28 536 -28 q 141 74 226 -28 q 56 346 56 175 q 140 619 56 517 q 388 722 224 722 q 631 650 540 722 q 732 438 722 578 l 496 438 z "},"Ď":{"ha":943,"x_min":56,"x_max":888,"o":"m 256 1313 l 410 1313 l 483 1211 l 563 1313 l 715 1313 l 575 1113 l 399 1113 l 256 1313 m 360 972 q 749 849 610 972 q 888 493 888 726 q 768 131 888 263 q 425 0 649 0 l 56 0 l 56 972 l 360 972 m 278 186 l 394 186 q 596 270 526 186 q 665 496 665 354 q 594 704 665 624 q 396 785 522 785 l 278 785 l 278 186 z "},"ď":{"ha":801,"x_min":56,"x_max":746,"o":"m 746 972 l 746 0 l 585 0 l 585 108 q 383 -28 514 -28 q 252 -4 310 -28 q 158 58 194 19 q 99 149 122 96 q 65 255 75 201 q 56 367 56 308 q 72 487 56 428 q 121 601 88 546 q 216 689 154 656 q 360 722 278 722 q 470 694 421 722 q 538 617 519 665 l 538 972 l 746 972 m 535 207 l 535 486 q 483 558 508 538 q 410 579 458 579 q 338 555 368 579 q 293 494 307 531 q 274 424 279 457 q 268 363 268 392 q 273 293 268 326 q 291 219 278 260 q 335 153 304 178 q 411 129 365 129 q 483 146 460 129 q 535 207 506 163 z "},"Đ":{"ha":943,"x_min":56,"x_max":888,"o":"m 360 972 q 749 849 610 972 q 888 493 888 726 q 768 131 888 263 q 425 0 649 0 l 56 0 l 56 972 l 360 972 m 278 186 l 394 186 q 596 270 526 186 q 665 496 665 354 q 594 704 665 624 q 396 785 522 785 l 278 785 l 278 186 z "},"đ":{"ha":979,"x_min":56,"x_max":924,"o":"m 924 867 l 924 686 l 746 686 l 746 0 l 585 0 l 585 108 q 383 -28 514 -28 q 252 -4 310 -28 q 158 58 194 19 q 99 149 122 96 q 65 255 75 201 q 56 367 56 308 q 72 487 56 428 q 121 601 88 546 q 216 689 154 656 q 360 722 278 722 q 470 694 421 722 q 538 617 519 665 l 538 972 l 746 972 l 746 867 l 924 867 m 535 207 l 535 486 q 483 558 508 538 q 410 579 458 579 q 338 555 368 579 q 293 494 307 531 q 274 424 279 457 q 268 363 268 392 q 273 293 268 326 q 291 219 278 260 q 335 153 304 178 q 411 129 365 129 q 483 146 460 129 q 535 207 506 163 z "},"Ē":{"ha":764,"x_min":56,"x_max":708,"o":"m 163 1124 l 163 1250 l 600 1250 l 600 1124 l 163 1124 m 278 785 l 278 588 l 611 588 l 611 400 l 278 400 l 278 188 l 708 188 l 708 0 l 56 0 l 56 972 l 708 972 l 708 785 l 278 785 z "},"ē":{"ha":797,"x_min":56,"x_max":742,"o":"m 133 846 l 133 972 l 571 972 l 571 846 l 133 846 m 299 303 l 299 125 l 518 125 l 518 229 l 742 229 q 735 178 742 207 q 706 113 728 150 q 649 44 683 75 q 553 -7 615 14 q 411 -28 490 -28 q 146 80 236 -28 q 56 374 56 188 q 144 621 56 519 q 399 722 232 722 q 553 700 489 722 q 653 643 617 678 q 708 550 689 608 q 733 437 728 492 q 738 303 739 382 l 299 303 m 517 428 l 515 569 l 299 569 l 297 428 l 517 428 z "},"Ė":{"ha":764,"x_min":56,"x_max":708,"o":"m 288 1069 l 288 1250 l 475 1250 l 475 1069 l 288 1069 m 278 785 l 278 588 l 611 588 l 611 400 l 278 400 l 278 188 l 708 188 l 708 0 l 56 0 l 56 972 l 708 972 l 708 785 l 278 785 z "},"ė":{"ha":797,"x_min":56,"x_max":742,"o":"m 258 792 l 258 972 l 446 972 l 446 792 l 258 792 m 299 303 l 299 125 l 518 125 l 518 229 l 742 229 q 735 178 742 207 q 706 113 728 150 q 649 44 683 75 q 553 -7 615 14 q 411 -28 490 -28 q 146 80 236 -28 q 56 374 56 188 q 144 621 56 519 q 399 722 232 722 q 553 700 489 722 q 653 643 617 678 q 708 550 689 608 q 733 437 728 492 q 738 303 739 382 l 299 303 m 517 428 l 515 569 l 299 569 l 297 428 l 517 428 z "},"Ę":{"ha":764,"x_min":56,"x_max":708,"o":"m 708 785 l 278 785 l 278 588 l 611 588 l 611 400 l 278 400 l 278 188 l 708 188 l 708 0 l 374 0 l 374 -139 l 503 -139 l 503 -218 q 414 -246 472 -246 q 261 -90 261 -246 q 293 0 261 -39 l 56 0 l 56 972 l 708 972 l 708 785 z "},"ę":{"ha":797,"x_min":56,"x_max":742,"o":"m 742 229 q 735 178 742 207 q 706 113 728 150 q 649 44 683 75 q 553 -7 615 14 q 411 -28 490 -28 l 411 -139 l 540 -139 l 540 -218 q 451 -246 510 -246 q 299 -90 299 -246 q 317 -18 299 -53 q 122 113 188 10 q 56 374 56 215 q 144 621 56 519 q 399 722 232 722 q 553 700 489 722 q 653 643 617 678 q 708 550 689 608 q 733 437 728 492 q 738 303 739 382 l 299 303 l 299 125 l 518 125 l 518 229 l 742 229 m 299 569 l 297 428 l 517 428 l 515 569 l 299 569 z "},"Ě":{"ha":764,"x_min":56,"x_max":708,"o":"m 151 1313 l 306 1313 l 379 1211 l 458 1313 l 611 1313 l 471 1113 l 294 1113 l 151 1313 m 278 785 l 278 588 l 611 588 l 611 400 l 278 400 l 278 188 l 708 188 l 708 0 l 56 0 l 56 972 l 708 972 l 708 785 l 278 785 z "},"ě":{"ha":797,"x_min":56,"x_max":742,"o":"m 122 1035 l 276 1035 l 350 933 l 429 1035 l 582 1035 l 442 835 l 265 835 l 122 1035 m 299 303 l 299 125 l 518 125 l 518 229 l 742 229 q 735 178 742 207 q 706 113 728 150 q 649 44 683 75 q 553 -7 615 14 q 411 -28 490 -28 q 146 80 236 -28 q 56 374 56 188 q 144 621 56 519 q 399 722 232 722 q 553 700 489 722 q 653 643 617 678 q 708 550 689 608 q 733 437 728 492 q 738 303 739 382 l 299 303 m 517 428 l 515 569 l 299 569 l 297 428 l 517 428 z "},"Ğ":{"ha":975,"x_min":56,"x_max":919,"o":"m 418 1313 l 418 1208 l 571 1208 l 571 1313 l 706 1313 q 642 1168 699 1221 q 494 1115 585 1115 q 348 1168 404 1115 q 283 1313 292 1221 l 418 1313 m 547 343 l 547 510 l 918 510 l 918 0 l 751 0 l 751 96 q 647 1 708 31 q 492 -28 585 -28 q 283 14 371 -28 q 147 131 196 56 q 77 296 99 206 q 56 496 56 386 q 79 687 56 600 q 152 846 103 774 q 290 959 201 918 q 497 1000 378 1000 q 810 903 700 1000 q 919 625 919 807 l 683 625 l 683 821 l 325 821 l 325 153 l 701 153 l 701 343 l 547 343 z "},"ğ":{"ha":781,"x_min":42,"x_max":725,"o":"m 307 1035 l 307 931 l 460 931 l 460 1035 l 594 1035 q 531 890 588 943 q 383 838 474 838 q 237 890 293 838 q 172 1035 181 943 l 307 1035 m 42 354 q 56 489 42 428 q 101 604 69 550 q 190 689 132 658 q 328 719 247 719 q 454 688 406 719 q 539 572 503 657 l 539 694 l 725 694 l 725 -157 q 688 -244 725 -210 q 590 -278 651 -278 l 229 -278 l 229 -111 l 508 -111 l 508 74 q 438 7 476 28 q 333 -14 399 -14 q 199 19 257 -14 q 107 108 140 53 q 58 225 74 163 q 42 354 42 288 m 258 351 q 397 139 258 139 q 514 186 472 139 l 514 504 q 401 567 464 567 q 258 351 258 567 z "},"Ġ":{"ha":975,"x_min":56,"x_max":919,"o":"m 400 1069 l 400 1250 l 588 1250 l 588 1069 l 400 1069 m 547 343 l 547 510 l 918 510 l 918 0 l 751 0 l 751 96 q 647 1 708 31 q 492 -28 585 -28 q 283 14 371 -28 q 147 131 196 56 q 77 296 99 206 q 56 496 56 386 q 79 687 56 600 q 152 846 103 774 q 290 959 201 918 q 497 1000 378 1000 q 810 903 700 1000 q 919 625 919 807 l 683 625 l 683 821 l 325 821 l 325 153 l 701 153 l 701 343 l 547 343 z "},"ġ":{"ha":781,"x_min":42,"x_max":725,"o":"m 289 792 l 289 972 l 476 972 l 476 792 l 289 792 m 42 354 q 56 489 42 428 q 101 604 69 550 q 190 689 132 658 q 328 719 247 719 q 454 688 406 719 q 539 572 503 657 l 539 694 l 725 694 l 725 -157 q 688 -244 725 -210 q 590 -278 651 -278 l 229 -278 l 229 -111 l 508 -111 l 508 74 q 438 7 476 28 q 333 -14 399 -14 q 199 19 257 -14 q 107 108 140 53 q 58 225 74 163 q 42 354 42 288 m 258 351 q 397 139 258 139 q 514 186 472 139 l 514 504 q 401 567 464 567 q 258 351 258 567 z "},"Ģ":{"ha":975,"x_min":56,"x_max":919,"o":"m 547 343 l 547 510 l 918 510 l 918 0 l 751 0 l 751 96 q 647 1 708 31 q 492 -28 585 -28 q 283 14 371 -28 q 147 131 196 56 q 77 296 99 206 q 56 496 56 386 q 79 687 56 600 q 152 846 103 774 q 290 959 201 918 q 497 1000 378 1000 q 810 903 700 1000 q 919 625 919 807 l 683 625 l 683 821 l 325 821 l 325 153 l 701 153 l 701 343 l 547 343 m 390 -83 l 585 -83 l 585 -278 l 524 -403 l 431 -403 l 483 -278 l 390 -278 l 390 -83 z "},"ģ":{"ha":794,"x_min":42,"x_max":725,"o":"m 601 856 l 407 856 l 407 1050 l 468 1175 l 561 1175 l 508 1050 l 601 1050 l 601 856 m 42 354 q 56 489 42 428 q 101 604 69 550 q 190 689 132 658 q 328 719 247 719 q 454 688 406 719 q 539 572 503 657 l 539 694 l 725 694 l 725 -157 q 688 -244 725 -210 q 590 -278 651 -278 l 229 -278 l 229 -111 l 508 -111 l 508 74 q 438 7 476 28 q 333 -14 399 -14 q 199 19 257 -14 q 107 108 140 53 q 58 225 74 163 q 42 354 42 288 m 258 351 q 397 139 258 139 q 514 186 472 139 l 514 504 q 401 567 464 567 q 258 351 258 567 z "},"Ħ":{"ha":878,"x_min":56,"x_max":822,"o":"m 600 972 l 822 972 l 822 0 l 600 0 l 600 399 l 278 399 l 278 0 l 56 0 l 56 972 l 278 972 l 278 586 l 600 586 l 600 972 z "},"ħ":{"ha":756,"x_min":56,"x_max":700,"o":"m 700 0 l 492 0 l 492 569 l 264 569 l 264 0 l 56 0 l 56 972 l 253 972 l 253 622 q 335 693 272 664 q 467 722 399 722 q 651 654 603 722 q 700 449 700 586 l 700 0 z "},"Ī":{"ha":333,"x_min":-53,"x_max":385,"o":"m -53 1124 l -53 1250 l 385 1250 l 385 1124 l -53 1124 m 278 0 l 56 0 l 56 972 l 278 972 l 278 0 z "},"ī":{"ha":319,"x_min":-60,"x_max":378,"o":"m -60 846 l -60 972 l 378 972 l 378 846 l -60 846 m 264 0 l 56 0 l 56 694 l 264 694 l 264 0 z "},"Į":{"ha":353,"x_min":56,"x_max":297,"o":"m 168 -139 l 297 -139 l 297 -218 q 208 -246 267 -246 q 56 -90 56 -246 q 88 0 56 -39 l 56 0 l 56 972 l 278 972 l 278 0 l 168 0 l 168 -139 z "},"į":{"ha":319,"x_min":56,"x_max":264,"o":"m 264 778 l 56 778 l 56 972 l 264 972 l 264 778 m 264 0 l 56 0 l 56 694 l 264 694 l 264 0 z "},"İ":{"ha":333,"x_min":56,"x_max":278,"o":"m 72 1069 l 72 1250 l 260 1250 l 260 1069 l 72 1069 m 278 0 l 56 0 l 56 972 l 278 972 l 278 0 z "},"ı":{"ha":319,"x_min":56,"x_max":264,"o":"m 264 0 l 56 0 l 56 694 l 264 694 l 264 0 z "},"Ķ":{"ha":906,"x_min":56,"x_max":850,"o":"m 408 504 l 850 0 l 568 0 l 272 368 l 272 0 l 56 0 l 56 972 l 272 972 l 272 631 l 550 972 l 813 972 l 408 504 m 276 -278 l 276 -83 l 471 -83 l 471 -278 l 410 -403 l 317 -403 l 369 -278 l 276 -278 z "},"ķ":{"ha":700,"x_min":56,"x_max":714,"o":"m 422 376 l 714 0 l 471 0 l 264 275 l 264 0 l 56 0 l 56 972 l 264 972 l 264 464 l 457 694 l 700 694 l 422 376 m 207 -278 l 207 -83 l 401 -83 l 401 -278 l 340 -403 l 247 -403 l 300 -278 l 207 -278 z "},"Ĺ":{"ha":633,"x_min":56,"x_max":606,"o":"m 147 1110 l 214 1313 l 428 1313 l 268 1110 l 147 1110 m 606 188 l 606 0 l 56 0 l 56 972 l 278 972 l 278 188 l 606 188 z "},"ĺ":{"ha":319,"x_min":56,"x_max":356,"o":"m 75 1110 l 142 1313 l 356 1313 l 196 1110 l 75 1110 m 56 972 l 264 972 l 264 0 l 56 0 l 56 972 z "},"Ļ":{"ha":633,"x_min":56,"x_max":606,"o":"m 606 188 l 606 0 l 56 0 l 56 972 l 278 972 l 278 188 l 606 188 m 233 -83 l 428 -83 l 428 -278 l 367 -403 l 274 -403 l 326 -278 l 233 -278 l 233 -83 z "},"ļ":{"ha":319,"x_min":56,"x_max":264,"o":"m 56 972 l 264 972 l 264 0 l 56 0 l 56 972 m 69 -83 l 264 -83 l 264 -278 l 203 -403 l 110 -403 l 163 -278 l 69 -278 l 69 -83 z "},"Ľ":{"ha":633,"x_min":1,"x_max":606,"o":"m 1 1313 l 156 1313 l 229 1211 l 308 1313 l 461 1313 l 321 1113 l 144 1113 l 1 1313 m 606 188 l 606 0 l 56 0 l 56 972 l 278 972 l 278 188 l 606 188 z "},"ľ":{"ha":599,"x_min":56,"x_max":543,"o":"m 56 972 l 264 972 l 264 0 l 56 0 l 56 972 m 363 972 l 543 972 l 543 869 l 518 599 l 388 599 l 363 869 l 363 972 z "},"Ł":{"ha":633,"x_min":56,"x_max":606,"o":"m 606 188 l 606 0 l 56 0 l 56 972 l 278 972 l 278 188 l 606 188 z "},"ł":{"ha":319,"x_min":56,"x_max":264,"o":"m 56 972 l 264 972 l 264 0 l 56 0 l 56 972 z "},"Ń":{"ha":917,"x_min":56,"x_max":861,"o":"m 374 1110 l 440 1313 l 654 1313 l 494 1110 l 374 1110 m 861 0 l 657 0 l 264 679 l 264 0 l 56 0 l 56 972 l 306 972 l 653 379 l 653 972 l 861 972 l 861 0 z "},"ń":{"ha":726,"x_min":56,"x_max":699,"o":"m 293 832 l 360 1035 l 574 1035 l 414 832 l 293 832 m 233 694 l 233 614 q 454 722 289 722 q 628 668 557 722 q 699 506 699 614 l 699 0 l 490 0 l 490 569 l 264 569 l 264 0 l 56 0 l 56 694 l 233 694 z "},"Ņ":{"ha":917,"x_min":56,"x_max":861,"o":"m 861 0 l 657 0 l 264 679 l 264 0 l 56 0 l 56 972 l 306 972 l 653 379 l 653 972 l 861 972 l 861 0 m 361 -83 l 556 -83 l 556 -278 l 494 -403 l 401 -403 l 454 -278 l 361 -278 l 361 -83 z "},"ņ":{"ha":754,"x_min":56,"x_max":699,"o":"m 233 694 l 233 614 q 454 722 289 722 q 628 668 557 722 q 699 506 699 614 l 699 0 l 490 0 l 490 569 l 264 569 l 264 0 l 56 0 l 56 694 l 233 694 m 193 -83 l 388 -83 l 388 -278 l 326 -403 l 233 -403 l 286 -278 l 193 -278 l 193 -83 z "},"Ň":{"ha":917,"x_min":56,"x_max":861,"o":"m 228 1313 l 382 1313 l 456 1211 l 535 1313 l 688 1313 l 547 1113 l 371 1113 l 228 1313 m 861 0 l 657 0 l 264 679 l 264 0 l 56 0 l 56 972 l 306 972 l 653 379 l 653 972 l 861 972 l 861 0 z "},"ň":{"ha":726,"x_min":56,"x_max":699,"o":"m 147 1035 l 301 1035 l 375 933 l 454 1035 l 607 1035 l 467 835 l 290 835 l 147 1035 m 233 694 l 233 614 q 454 722 289 722 q 628 668 557 722 q 699 506 699 614 l 699 0 l 490 0 l 490 569 l 264 569 l 264 0 l 56 0 l 56 694 l 233 694 z "},"Ŋ":{"ha":917,"x_min":56,"x_max":861,"o":"m 56 0 l 56 972 l 306 972 l 653 393 l 653 972 l 861 972 l 861 -117 q 828 -243 861 -208 q 700 -278 796 -278 l 506 -278 l 506 -114 l 653 -114 l 653 7 l 264 665 l 264 0 l 56 0 z "},"ŋ":{"ha":754,"x_min":56,"x_max":699,"o":"m 56 0 l 56 694 l 233 694 l 233 614 q 454 722 289 722 q 639 671 579 722 q 699 506 699 619 l 699 -117 q 666 -243 699 -208 q 538 -278 633 -278 l 343 -278 l 343 -114 l 490 -114 l 490 569 l 264 569 l 264 0 l 56 0 z "},"Ō":{"ha":1015,"x_min":56,"x_max":960,"o":"m 289 1124 l 289 1250 l 726 1250 l 726 1124 l 289 1124 m 511 -28 q 170 113 285 -28 q 56 478 56 253 q 81 678 56 586 q 159 843 107 769 q 301 958 211 917 q 511 1000 392 1000 q 847 856 733 1000 q 960 478 960 711 q 847 112 960 251 q 511 -28 733 -28 m 290 813 l 290 153 l 726 153 l 726 813 l 290 813 z "},"ō":{"ha":786,"x_min":56,"x_max":731,"o":"m 175 846 l 175 972 l 613 972 l 613 846 l 175 846 m 390 722 q 640 616 550 722 q 731 347 731 510 q 638 79 731 185 q 390 -26 544 -26 q 144 80 232 -26 q 56 354 56 186 q 144 618 56 514 q 390 722 233 722 m 261 569 l 261 126 l 525 126 l 525 569 l 261 569 z "},"Ő":{"ha":1015,"x_min":56,"x_max":960,"o":"m 236 1113 l 331 1315 l 531 1315 l 356 1113 l 236 1113 m 492 1113 l 588 1315 l 781 1315 l 614 1113 l 492 1113 m 511 -28 q 170 113 285 -28 q 56 478 56 253 q 81 678 56 586 q 159 843 107 769 q 301 958 211 917 q 511 1000 392 1000 q 847 856 733 1000 q 960 478 960 711 q 847 112 960 251 q 511 -28 733 -28 m 290 813 l 290 153 l 726 153 l 726 813 l 290 813 z "},"ő":{"ha":786,"x_min":56,"x_max":731,"o":"m 122 835 l 217 1038 l 417 1038 l 242 835 l 122 835 m 378 835 l 474 1038 l 667 1038 l 500 835 l 378 835 m 390 722 q 640 616 550 722 q 731 347 731 510 q 638 79 731 185 q 390 -26 544 -26 q 144 80 232 -26 q 56 354 56 186 q 144 618 56 514 q 390 722 233 722 m 261 569 l 261 126 l 525 126 l 525 569 l 261 569 z "},"Œ":{"ha":1606,"x_min":56,"x_max":1550,"o":"m 1550 785 l 1119 785 l 1119 588 l 1453 588 l 1453 400 l 1119 400 l 1119 188 l 1550 188 l 1550 0 l 897 0 l 897 189 q 511 -28 786 -28 q 170 113 285 -28 q 56 478 56 253 q 81 678 56 586 q 159 843 107 769 q 301 958 211 917 q 511 1000 392 1000 q 897 776 786 1000 l 897 972 l 1550 972 l 1550 785 m 726 153 l 726 813 l 290 813 l 290 153 l 726 153 z "},"œ":{"ha":1278,"x_min":56,"x_max":1222,"o":"m 999 229 l 1222 229 q 1215 178 1222 207 q 1186 113 1208 150 q 1130 44 1164 75 q 1033 -7 1096 14 q 892 -28 971 -28 q 632 74 722 -28 q 390 -26 539 -26 q 144 80 232 -26 q 56 354 56 186 q 144 618 56 514 q 390 722 233 722 q 631 628 539 722 q 879 722 722 722 q 1033 700 969 722 q 1133 643 1097 678 q 1189 550 1169 608 q 1214 437 1208 492 q 1218 303 1219 382 l 779 303 l 779 125 l 999 125 l 999 229 m 525 126 l 525 569 l 261 569 l 261 126 l 525 126 m 779 569 l 778 428 l 997 428 l 996 569 l 779 569 z "},"Ŕ":{"ha":829,"x_min":56,"x_max":843,"o":"m 631 1313 l 471 1110 l 350 1110 l 417 1313 l 631 1313 m 843 0 l 593 0 l 410 368 l 278 368 l 278 0 l 56 0 l 56 972 l 422 972 q 707 888 600 972 q 814 665 814 804 q 633 400 814 465 l 843 0 m 278 785 l 278 528 l 414 528 q 578 663 578 528 q 563 731 578 704 q 522 768 549 757 q 473 782 494 779 q 422 785 451 785 l 278 785 z "},"ŕ":{"ha":494,"x_min":56,"x_max":481,"o":"m 163 832 l 229 1035 l 443 1035 l 283 832 l 163 832 m 260 693 l 260 572 q 310 678 278 639 q 404 718 343 718 l 481 718 l 481 511 l 264 511 l 264 0 l 56 0 l 56 693 l 260 693 z "},"Ŗ":{"ha":829,"x_min":56,"x_max":843,"o":"m 633 400 l 843 0 l 593 0 l 410 368 l 278 368 l 278 0 l 56 0 l 56 972 l 422 972 q 707 888 600 972 q 814 665 814 804 q 633 400 814 465 m 278 785 l 278 528 l 414 528 q 578 663 578 528 q 563 731 578 704 q 522 768 549 757 q 473 782 494 779 q 422 785 451 785 l 278 785 m 267 -278 l 267 -83 l 461 -83 l 461 -278 l 400 -403 l 307 -403 l 360 -278 l 267 -278 z "},"ŗ":{"ha":814,"x_min":56,"x_max":481,"o":"m 260 693 l 260 572 q 310 678 278 639 q 404 718 343 718 l 481 718 l 481 511 l 264 511 l 264 0 l 56 0 l 56 693 l 260 693 m 65 -83 l 260 -83 l 260 -278 l 199 -403 l 106 -403 l 158 -278 l 65 -278 l 65 -83 z "},"Ř":{"ha":829,"x_min":56,"x_max":843,"o":"m 524 1113 l 347 1113 l 204 1313 l 358 1313 l 432 1211 l 511 1313 l 664 1313 l 524 1113 m 843 0 l 593 0 l 410 368 l 278 368 l 278 0 l 56 0 l 56 972 l 422 972 q 707 888 600 972 q 814 665 814 804 q 633 400 814 465 l 843 0 m 278 785 l 278 528 l 414 528 q 578 663 578 528 q 563 731 578 704 q 522 768 549 757 q 473 782 494 779 q 422 785 451 785 l 278 785 z "},"ř":{"ha":494,"x_min":17,"x_max":481,"o":"m 17 1035 l 171 1035 l 244 933 l 324 1035 l 476 1035 l 336 835 l 160 835 l 17 1035 m 260 693 l 260 572 q 310 678 278 639 q 404 718 343 718 l 481 718 l 481 511 l 264 511 l 264 0 l 56 0 l 56 693 l 260 693 z "},"Ś":{"ha":890,"x_min":56,"x_max":835,"o":"m 361 1110 l 428 1313 l 642 1313 l 482 1110 l 361 1110 m 586 667 l 586 819 l 324 819 l 324 713 q 336 663 324 683 q 373 630 349 642 q 415 613 397 618 q 461 603 433 608 q 611 561 549 583 q 727 503 674 539 q 808 415 781 468 q 835 289 835 361 q 722 57 835 142 q 454 -28 608 -28 q 303 -12 371 -28 q 178 40 236 4 q 88 144 121 76 q 56 306 56 211 l 292 306 l 292 153 l 582 153 l 583 251 q 428 381 583 347 q 173 490 268 408 q 78 713 78 572 q 178 922 78 844 q 447 1000 279 1000 q 551 991 501 1000 q 651 958 600 982 q 738 898 701 935 q 799 801 775 861 q 822 667 822 742 l 586 667 z "},"ś":{"ha":682,"x_min":31,"x_max":665,"o":"m 236 832 l 303 1035 l 517 1035 l 357 832 l 236 832 m 443 476 l 442 569 l 265 569 l 264 513 q 294 458 264 478 q 368 431 324 438 q 465 413 413 425 q 561 386 517 401 q 635 330 606 371 q 665 226 665 289 q 581 37 665 101 q 353 -28 496 -28 q 239 -16 292 -28 q 137 24 186 -4 q 59 107 88 51 q 31 240 31 163 l 260 240 l 260 125 l 442 125 l 443 192 q 414 240 443 221 q 340 267 385 258 q 244 290 296 275 q 147 326 192 306 q 72 393 101 346 q 42 508 42 440 q 126 668 42 614 q 339 722 210 722 q 429 719 390 722 q 515 701 468 715 q 593 661 563 686 q 644 589 624 636 q 665 476 665 542 l 443 476 z "},"Ş":{"ha":890,"x_min":56,"x_max":835,"o":"m 454 -28 l 438 -28 l 426 -51 l 458 -51 q 567 -83 532 -51 q 603 -168 603 -115 q 365 -303 603 -303 q 261 -292 311 -303 l 261 -219 l 458 -219 l 458 -126 l 278 -126 l 325 -17 q 56 306 56 35 l 292 306 l 292 153 l 582 153 l 583 251 q 428 381 583 347 q 173 490 268 408 q 78 713 78 572 q 178 922 78 844 q 447 1000 279 1000 q 551 991 501 1000 q 651 958 600 982 q 738 898 701 935 q 799 801 775 861 q 822 667 822 742 l 586 667 l 586 819 l 324 819 l 324 713 q 336 663 324 683 q 373 630 349 642 q 415 613 397 618 q 461 603 433 608 q 611 561 549 583 q 727 503 674 539 q 808 415 781 468 q 835 289 835 361 q 722 57 835 142 q 454 -28 608 -28 z "},"ş":{"ha":682,"x_min":31,"x_max":665,"o":"m 264 513 q 294 458 264 478 q 368 431 324 438 q 465 413 413 425 q 561 386 517 401 q 635 330 606 371 q 665 226 665 289 q 589 43 665 107 q 379 -28 513 -21 l 368 -51 l 400 -51 q 509 -83 474 -51 q 544 -168 544 -115 q 307 -303 544 -303 q 203 -292 253 -303 l 203 -219 l 400 -219 l 400 -126 l 219 -126 l 264 -21 q 31 240 31 17 l 260 240 l 260 125 l 442 125 l 443 192 q 414 240 443 221 q 340 267 385 258 q 244 290 296 275 q 147 326 192 306 q 72 393 101 346 q 42 508 42 440 q 126 668 42 614 q 339 722 210 722 q 429 719 390 722 q 515 701 468 715 q 593 661 563 686 q 644 589 624 636 q 665 476 665 542 l 443 476 l 442 569 l 265 569 l 264 513 z "},"Š":{"ha":890,"x_min":56,"x_max":835,"o":"m 215 1313 l 369 1313 l 443 1211 l 522 1313 l 675 1313 l 535 1113 l 358 1113 l 215 1313 m 586 667 l 586 819 l 324 819 l 324 713 q 336 663 324 683 q 373 630 349 642 q 415 613 397 618 q 461 603 433 608 q 611 561 549 583 q 727 503 674 539 q 808 415 781 468 q 835 289 835 361 q 722 57 835 142 q 454 -28 608 -28 q 303 -12 371 -28 q 178 40 236 4 q 88 144 121 76 q 56 306 56 211 l 292 306 l 292 153 l 582 153 l 583 251 q 428 381 583 347 q 173 490 268 408 q 78 713 78 572 q 178 922 78 844 q 447 1000 279 1000 q 551 991 501 1000 q 651 958 600 982 q 738 898 701 935 q 799 801 775 861 q 822 667 822 742 l 586 667 z "},"š":{"ha":682,"x_min":31,"x_max":665,"o":"m 90 1035 l 244 1035 l 318 933 l 397 1035 l 550 1035 l 410 835 l 233 835 l 90 1035 m 443 476 l 442 569 l 265 569 l 264 513 q 294 458 264 478 q 368 431 324 438 q 465 413 413 425 q 561 386 517 401 q 635 330 606 371 q 665 226 665 289 q 581 37 665 101 q 353 -28 496 -28 q 239 -16 292 -28 q 137 24 186 -4 q 59 107 88 51 q 31 240 31 163 l 260 240 l 260 125 l 442 125 l 443 192 q 414 240 443 221 q 340 267 385 258 q 244 290 296 275 q 147 326 192 306 q 72 393 101 346 q 42 508 42 440 q 126 668 42 614 q 339 722 210 722 q 429 719 390 722 q 515 701 468 715 q 593 661 563 686 q 644 589 624 636 q 665 476 665 542 l 443 476 z "},"Ţ":{"ha":814,"x_min":56,"x_max":786,"o":"m 56 972 l 786 972 l 786 785 l 532 785 l 532 0 l 310 0 l 310 785 l 56 785 l 56 972 m 433 -329 q 542 -361 507 -329 q 578 -446 578 -393 q 340 -581 578 -581 q 236 -569 286 -581 l 236 -497 l 433 -497 l 433 -404 l 253 -404 l 321 -244 l 440 -244 l 401 -329 l 433 -329 z "},"ţ":{"ha":542,"x_min":42,"x_max":500,"o":"m 500 528 l 349 528 l 349 167 l 500 167 l 500 0 l 317 0 l 293 -51 l 325 -51 q 434 -83 399 -51 q 469 -168 469 -115 q 232 -303 469 -303 q 128 -292 178 -303 l 128 -219 l 325 -219 l 325 -126 l 144 -126 l 207 19 q 140 172 140 58 l 140 528 l 42 528 l 42 694 l 140 694 l 140 972 l 349 972 l 349 694 l 500 694 l 500 528 z "},"Ť":{"ha":814,"x_min":56,"x_max":786,"o":"m 510 1113 l 333 1113 l 190 1313 l 344 1313 l 418 1211 l 497 1313 l 650 1313 l 510 1113 m 786 972 l 786 785 l 532 785 l 532 0 l 310 0 l 310 785 l 56 785 l 56 972 l 786 972 z "},"ť":{"ha":776,"x_min":42,"x_max":735,"o":"m 349 972 l 349 694 l 500 694 l 500 528 l 349 528 l 349 167 l 500 167 l 500 0 l 289 0 q 140 172 140 0 l 140 528 l 42 528 l 42 694 l 140 694 l 140 972 l 349 972 m 554 972 l 735 972 l 735 869 l 710 599 l 579 599 l 554 869 l 554 972 z "},"Ŧ":{"ha":814,"x_min":56,"x_max":786,"o":"m 786 785 l 532 785 l 532 535 l 699 535 l 699 354 l 532 354 l 532 0 l 310 0 l 310 354 l 143 354 l 143 535 l 310 535 l 310 785 l 56 785 l 56 972 l 786 972 l 786 785 z "},"ŧ":{"ha":542,"x_min":40,"x_max":500,"o":"m 500 528 l 349 528 l 349 443 l 499 443 l 499 263 l 349 263 l 349 167 l 500 167 l 500 0 l 289 0 q 140 172 140 0 l 140 263 l 40 263 l 40 443 l 140 443 l 140 528 l 42 528 l 42 694 l 140 694 l 140 972 l 349 972 l 349 694 l 500 694 l 500 528 z "},"Ū":{"ha":883,"x_min":56,"x_max":828,"o":"m 222 1124 l 222 1250 l 660 1250 l 660 1124 l 222 1124 m 828 300 q 743 44 828 117 q 440 -28 658 -28 q 141 44 226 -28 q 56 300 56 115 l 56 972 l 278 972 l 278 160 l 606 160 l 606 972 l 828 972 l 828 300 z "},"ū":{"ha":767,"x_min":56,"x_max":711,"o":"m 164 846 l 164 972 l 601 972 l 601 846 l 164 846 m 544 0 l 544 89 q 464 0 513 28 q 314 -28 415 -28 q 120 41 185 -28 q 56 219 56 110 l 56 694 l 260 694 l 260 125 l 503 125 l 503 694 l 711 694 l 711 0 l 544 0 z "},"Ů":{"ha":883,"x_min":56,"x_max":828,"o":"m 588 1185 q 544 1082 588 1125 q 442 1039 501 1039 q 338 1082 382 1039 q 294 1185 294 1125 q 338 1288 294 1244 q 442 1332 381 1332 q 544 1289 501 1332 q 588 1185 588 1246 m 389 1236 l 389 1133 l 492 1133 l 492 1236 l 389 1236 m 828 300 q 743 44 828 117 q 440 -28 658 -28 q 141 44 226 -28 q 56 300 56 115 l 56 972 l 278 972 l 278 160 l 606 160 l 606 972 l 828 972 l 828 300 z "},"ů":{"ha":767,"x_min":56,"x_max":711,"o":"m 529 907 q 486 804 529 847 q 383 761 443 761 q 280 804 324 761 q 236 907 236 847 q 279 1010 236 967 q 383 1054 322 1054 q 486 1011 443 1054 q 529 907 529 968 m 331 958 l 331 856 l 433 856 l 433 958 l 331 958 m 544 0 l 544 89 q 464 0 513 28 q 314 -28 415 -28 q 120 41 185 -28 q 56 219 56 110 l 56 694 l 260 694 l 260 125 l 503 125 l 503 694 l 711 694 l 711 0 l 544 0 z "},"Ű":{"ha":883,"x_min":56,"x_max":828,"o":"m 169 1113 l 264 1315 l 464 1315 l 289 1113 l 169 1113 m 425 1113 l 521 1315 l 714 1315 l 547 1113 l 425 1113 m 828 300 q 743 44 828 117 q 440 -28 658 -28 q 141 44 226 -28 q 56 300 56 115 l 56 972 l 278 972 l 278 160 l 606 160 l 606 972 l 828 972 l 828 300 z "},"ű":{"ha":767,"x_min":56,"x_max":711,"o":"m 111 835 l 206 1038 l 406 1038 l 231 835 l 111 835 m 367 835 l 463 1038 l 656 1038 l 489 835 l 367 835 m 544 0 l 544 89 q 464 0 513 28 q 314 -28 415 -28 q 120 41 185 -28 q 56 219 56 110 l 56 694 l 260 694 l 260 125 l 503 125 l 503 694 l 711 694 l 711 0 l 544 0 z "},"Ų":{"ha":883,"x_min":56,"x_max":828,"o":"m 606 972 l 828 972 l 828 300 q 743 44 828 117 q 440 -28 658 -28 l 399 -28 l 399 -139 l 528 -139 l 528 -218 q 439 -246 497 -246 q 286 -90 286 -246 q 304 -19 286 -51 q 113 74 169 0 q 56 300 56 147 l 56 972 l 278 972 l 278 160 l 606 160 l 606 972 z "},"ų":{"ha":767,"x_min":56,"x_max":757,"o":"m 628 -139 l 757 -139 l 757 -218 q 668 -246 726 -246 q 515 -90 515 -246 q 547 0 515 -39 l 544 0 l 544 89 q 464 0 513 28 q 314 -28 415 -28 q 120 41 185 -28 q 56 219 56 110 l 56 694 l 260 694 l 260 125 l 503 125 l 503 694 l 711 694 l 711 0 l 628 0 l 628 -139 z "},"Ŵ":{"ha":1232,"x_min":0,"x_max":1260,"o":"m 358 1113 l 501 1313 l 678 1313 l 818 1113 l 665 1113 l 586 1214 l 513 1113 l 358 1113 m 1038 0 l 815 0 l 619 678 l 442 0 l 206 0 l 0 972 l 236 972 l 353 289 l 501 972 l 738 972 l 903 289 l 1024 972 l 1260 972 l 1038 0 z "},"ŵ":{"ha":989,"x_min":-14,"x_max":1003,"o":"m 250 835 l 393 1035 l 569 1035 l 710 835 l 557 835 l 478 936 l 404 835 l 250 835 m 803 0 l 622 0 l 476 453 l 353 0 l 172 0 l -14 694 l 174 694 l 281 246 l 394 694 l 582 694 l 704 244 l 814 694 l 1003 694 l 803 0 z "},"Ŷ":{"ha":831,"x_min":28,"x_max":858,"o":"m 217 1113 l 360 1313 l 536 1313 l 676 1113 l 524 1113 l 444 1214 l 371 1113 l 217 1113 m 560 401 l 560 0 l 338 0 l 338 401 l 28 972 l 285 972 l 456 610 l 601 972 l 858 972 l 560 401 z "},"ŷ":{"ha":735,"x_min":56,"x_max":735,"o":"m 165 835 l 308 1035 l 485 1035 l 625 835 l 472 835 l 393 936 l 319 835 l 165 835 m 526 -42 q 437 -224 496 -171 q 267 -278 378 -278 l 125 -278 l 125 -111 l 299 -111 l 299 0 l 56 694 l 276 694 l 411 167 l 526 694 l 735 694 l 526 -42 z "},"Ÿ":{"ha":831,"x_min":28,"x_max":858,"o":"m 221 1069 l 221 1250 l 408 1250 l 408 1069 l 221 1069 m 499 1069 l 499 1250 l 686 1250 l 686 1069 l 499 1069 m 560 401 l 560 0 l 338 0 l 338 401 l 28 972 l 285 972 l 456 610 l 601 972 l 858 972 l 560 401 z "},"Ź":{"ha":819,"x_min":56,"x_max":764,"o":"m 315 1110 l 382 1313 l 596 1313 l 436 1110 l 315 1110 m 336 188 l 764 188 l 764 0 l 64 0 l 64 168 l 461 785 l 56 785 l 56 972 l 735 972 l 735 801 l 336 188 z "},"ź":{"ha":661,"x_min":56,"x_max":606,"o":"m 246 832 l 313 1035 l 526 1035 l 367 832 l 246 832 m 583 539 l 278 167 l 606 167 l 606 0 l 56 0 l 56 167 l 353 528 l 68 528 l 68 694 l 583 694 l 583 539 z "},"Ż":{"ha":819,"x_min":56,"x_max":764,"o":"m 306 1069 l 306 1250 l 493 1250 l 493 1069 l 306 1069 m 336 188 l 764 188 l 764 0 l 64 0 l 64 168 l 461 785 l 56 785 l 56 972 l 735 972 l 735 801 l 336 188 z "},"ż":{"ha":661,"x_min":56,"x_max":606,"o":"m 236 792 l 236 972 l 424 972 l 424 792 l 236 792 m 583 539 l 278 167 l 606 167 l 606 0 l 56 0 l 56 167 l 353 528 l 68 528 l 68 694 l 583 694 l 583 539 z "},"Ž":{"ha":819,"x_min":56,"x_max":764,"o":"m 169 1313 l 324 1313 l 397 1211 l 476 1313 l 629 1313 l 489 1113 l 313 1113 l 169 1313 m 336 188 l 764 188 l 764 0 l 64 0 l 64 168 l 461 785 l 56 785 l 56 972 l 735 972 l 735 801 l 336 188 z "},"ž":{"ha":661,"x_min":56,"x_max":606,"o":"m 100 1035 l 254 1035 l 328 933 l 407 1035 l 560 1035 l 419 835 l 243 835 l 100 1035 m 583 539 l 278 167 l 606 167 l 606 0 l 56 0 l 56 167 l 353 528 l 68 528 l 68 694 l 583 694 l 583 539 z "},"Ș":{"ha":890,"x_min":56,"x_max":835,"o":"m 586 667 l 586 819 l 324 819 l 324 713 q 336 663 324 683 q 373 630 349 642 q 415 613 397 618 q 461 603 433 608 q 611 561 549 583 q 727 503 674 539 q 808 415 781 468 q 835 289 835 361 q 722 57 835 142 q 454 -28 608 -28 q 303 -12 371 -28 q 178 40 236 4 q 88 144 121 76 q 56 306 56 211 l 292 306 l 292 153 l 582 153 l 583 251 q 428 381 583 347 q 173 490 268 408 q 78 713 78 572 q 178 922 78 844 q 447 1000 279 1000 q 551 991 501 1000 q 651 958 600 982 q 738 898 701 935 q 799 801 775 861 q 822 667 822 742 l 586 667 m 349 -83 l 543 -83 l 543 -278 l 482 -403 l 389 -403 l 442 -278 l 349 -278 l 349 -83 z "},"ș":{"ha":724,"x_min":31,"x_max":665,"o":"m 443 476 l 442 569 l 265 569 l 264 513 q 294 458 264 478 q 368 431 324 438 q 465 413 413 425 q 561 386 517 401 q 635 330 606 371 q 665 226 665 289 q 581 37 665 101 q 353 -28 496 -28 q 239 -16 292 -28 q 137 24 186 -4 q 59 107 88 51 q 31 240 31 163 l 260 240 l 260 125 l 442 125 l 443 192 q 414 240 443 221 q 340 267 385 258 q 244 290 296 275 q 147 326 192 306 q 72 393 101 346 q 42 508 42 440 q 126 668 42 614 q 339 722 210 722 q 429 719 390 722 q 515 701 468 715 q 593 661 563 686 q 644 589 624 636 q 665 476 665 542 l 443 476 m 263 -83 l 457 -83 l 457 -278 l 396 -403 l 303 -403 l 356 -278 l 263 -278 l 263 -83 z "},"Ț":{"ha":814,"x_min":56,"x_max":786,"o":"m 786 972 l 786 785 l 532 785 l 532 0 l 310 0 l 310 785 l 56 785 l 56 972 l 786 972 m 244 -278 l 244 -83 l 439 -83 l 439 -278 l 378 -403 l 285 -403 l 338 -278 l 244 -278 z "},"ț":{"ha":569,"x_min":42,"x_max":500,"o":"m 500 528 l 349 528 l 349 167 l 500 167 l 500 0 l 289 0 q 140 172 140 0 l 140 528 l 42 528 l 42 694 l 140 694 l 140 972 l 349 972 l 349 694 l 500 694 l 500 528 m 108 -278 l 108 -83 l 303 -83 l 303 -278 l 242 -403 l 149 -403 l 201 -278 l 108 -278 z "},"ˆ":{"ha":571,"x_min":56,"x_max":515,"o":"m 56 835 l 199 1035 l 375 1035 l 515 835 l 363 835 l 283 936 l 210 835 l 56 835 z "},"ˇ":{"ha":571,"x_min":56,"x_max":515,"o":"m 56 1035 l 210 1035 l 283 933 l 363 1035 l 515 1035 l 375 835 l 199 835 l 56 1035 z "},"˘":{"ha":533,"x_min":56,"x_max":478,"o":"m 190 1035 l 190 931 l 343 931 l 343 1035 l 478 1035 q 414 890 471 943 q 267 838 357 838 q 120 890 176 838 q 56 1035 64 943 l 190 1035 z "},"˙":{"ha":299,"x_min":56,"x_max":243,"o":"m 56 854 l 56 1035 l 243 1035 l 243 854 l 56 854 z "},"˚":{"ha":376,"x_min":56,"x_max":321,"o":"m 321 933 q 283 840 321 879 q 189 801 244 801 q 94 840 133 801 q 56 933 56 879 q 94 1028 56 989 q 189 1067 133 1067 q 283 1028 244 1067 q 321 933 321 989 m 142 981 l 142 888 l 235 888 l 235 981 l 142 981 z "},"˛":{"ha":353,"x_min":56,"x_max":297,"o":"m 297 -218 q 208 -246 267 -246 q 56 -90 56 -246 q 103 18 56 -31 l 168 18 l 168 -139 l 297 -139 l 297 -218 z "},"˜":{"ha":579,"x_min":51,"x_max":524,"o":"m 524 1014 q 403 843 524 843 q 288 874 367 843 q 189 900 218 900 q 142 842 142 900 l 56 842 q 88 972 51 928 q 179 1014 121 1014 q 290 982 218 1014 q 381 954 350 954 q 436 1014 428 954 l 524 1014 z "},"˝":{"ha":656,"x_min":56,"x_max":600,"o":"m 56 835 l 150 1038 l 350 1038 l 175 835 l 56 835 m 311 835 l 407 1038 l 600 1038 l 433 835 l 311 835 z "},"̀":{"ha":0,"x_min":-362,"x_max":-56,"o":"m -56 832 l -176 832 l -362 1035 l -149 1035 l -56 832 z "},"́":{"ha":0,"x_min":-364,"x_max":-83,"o":"m -364 832 l -297 1035 l -83 1035 l -243 832 l -364 832 z "},"̂":{"ha":0,"x_min":-515,"x_max":-56,"o":"m -515 835 l -372 1035 l -196 1035 l -56 835 l -208 835 l -287 936 l -361 835 l -515 835 z "},"̃":{"ha":0,"x_min":-528,"x_max":-56,"o":"m -56 1014 q -176 843 -56 843 q -292 874 -212 843 q -390 900 -361 900 q -437 842 -437 900 l -524 842 q -492 972 -528 928 q -400 1014 -458 1014 q -289 982 -361 1014 q -199 954 -229 954 q -143 1014 -151 954 l -56 1014 z "},"̄":{"ha":0,"x_min":-493,"x_max":-56,"o":"m -493 846 l -493 972 l -56 972 l -56 846 l -493 846 z "},"̆":{"ha":0,"x_min":-478,"x_max":-56,"o":"m -343 1035 l -343 931 l -190 931 l -190 1035 l -56 1035 q -119 890 -62 943 q -267 838 -176 838 q -413 890 -357 838 q -478 1035 -469 943 l -343 1035 z "},"̇":{"ha":0,"x_min":-243,"x_max":-56,"o":"m -243 792 l -243 972 l -56 972 l -56 792 l -243 792 z "},"̈":{"ha":0,"x_min":-496,"x_max":-31,"o":"m -496 792 l -496 972 l -308 972 l -308 792 l -496 792 m -218 792 l -218 972 l -31 972 l -31 792 l -218 792 z "},"̊":{"ha":0,"x_min":-335,"x_max":-42,"o":"m -42 907 q -85 804 -42 847 q -187 761 -128 761 q -291 804 -247 761 q -335 907 -335 847 q -291 1010 -335 967 q -187 1054 -247 1054 q -85 1011 -128 1054 q -42 907 -42 968 m -240 958 l -240 856 l -137 856 l -137 958 l -240 958 z "},"̋":{"ha":0,"x_min":-600,"x_max":-56,"o":"m -600 835 l -506 1038 l -306 1038 l -481 835 l -600 835 m -344 835 l -249 1038 l -56 1038 l -222 835 l -344 835 z "},"̌":{"ha":0,"x_min":-515,"x_max":-56,"o":"m -515 1035 l -361 1035 l -287 933 l -208 1035 l -56 1035 l -196 835 l -372 835 l -515 1035 z "},"̒":{"ha":0,"x_min":-250,"x_max":-56,"o":"m -56 778 l -250 778 l -250 972 l -189 1097 l -96 1097 l -149 972 l -56 972 l -56 778 z "},"̦":{"ha":0,"x_min":-778,"x_max":-583,"o":"m -778 194 l -583 194 l -583 0 l -644 -125 l -737 -125 l -685 0 l -778 0 l -778 194 z "},"̧":{"ha":0,"x_min":-425,"x_max":-83,"o":"m -425 -292 l -425 -219 l -228 -219 l -228 -126 l -408 -126 l -340 33 l -221 33 l -260 -51 l -228 -51 q -119 -83 -154 -51 q -83 -168 -83 -115 q -321 -303 -83 -303 q -425 -292 -375 -303 z "},"̨":{"ha":0,"x_min":-358,"x_max":-117,"o":"m -117 -218 q -206 -246 -147 -246 q -358 -90 -358 -246 q -311 18 -358 -31 l -246 18 l -246 -139 l -117 -139 l -117 -218 z "},"̵":{"ha":0,"x_min":0,"x_max":0,"o":""},"̶":{"ha":0,"x_min":0,"x_max":0,"o":""},"̷":{"ha":0,"x_min":0,"x_max":0,"o":""},"̸":{"ha":0,"x_min":0,"x_max":0,"o":""},"Ẁ":{"ha":1232,"x_min":0,"x_max":1260,"o":"m 742 1110 l 621 1110 l 435 1313 l 649 1313 l 742 1110 m 1038 0 l 815 0 l 619 678 l 442 0 l 206 0 l 0 972 l 236 972 l 353 289 l 501 972 l 738 972 l 903 289 l 1024 972 l 1260 972 l 1038 0 z "},"ẁ":{"ha":989,"x_min":-14,"x_max":1003,"o":"m 633 832 l 513 832 l 326 1035 l 540 1035 l 633 832 m 803 0 l 622 0 l 476 453 l 353 0 l 172 0 l -14 694 l 174 694 l 281 246 l 394 694 l 582 694 l 704 244 l 814 694 l 1003 694 l 803 0 z "},"Ẃ":{"ha":1232,"x_min":0,"x_max":1260,"o":"m 504 1110 l 571 1313 l 785 1313 l 625 1110 l 504 1110 m 1038 0 l 815 0 l 619 678 l 442 0 l 206 0 l 0 972 l 236 972 l 353 289 l 501 972 l 738 972 l 903 289 l 1024 972 l 1260 972 l 1038 0 z "},"ẃ":{"ha":989,"x_min":-14,"x_max":1003,"o":"m 396 832 l 463 1035 l 676 1035 l 517 832 l 396 832 m 803 0 l 622 0 l 476 453 l 353 0 l 172 0 l -14 694 l 174 694 l 281 246 l 394 694 l 582 694 l 704 244 l 814 694 l 1003 694 l 803 0 z "},"Ẅ":{"ha":1232,"x_min":0,"x_max":1260,"o":"m 363 1069 l 363 1250 l 550 1250 l 550 1069 l 363 1069 m 640 1069 l 640 1250 l 828 1250 l 828 1069 l 640 1069 m 1038 0 l 815 0 l 619 678 l 442 0 l 206 0 l 0 972 l 236 972 l 353 289 l 501 972 l 738 972 l 903 289 l 1024 972 l 1260 972 l 1038 0 z "},"ẅ":{"ha":989,"x_min":-14,"x_max":1003,"o":"m 254 792 l 254 972 l 442 972 l 442 792 l 254 792 m 532 792 l 532 972 l 719 972 l 719 792 l 532 792 m 803 0 l 622 0 l 476 453 l 353 0 l 172 0 l -14 694 l 174 694 l 281 246 l 394 694 l 582 694 l 704 244 l 814 694 l 1003 694 l 803 0 z "},"Ỳ":{"ha":831,"x_min":28,"x_max":858,"o":"m 600 1110 l 479 1110 l 293 1313 l 507 1313 l 600 1110 m 560 401 l 560 0 l 338 0 l 338 401 l 28 972 l 285 972 l 456 610 l 601 972 l 858 972 l 560 401 z "},"ỳ":{"ha":735,"x_min":56,"x_max":735,"o":"m 549 832 l 428 832 l 242 1035 l 456 1035 l 549 832 m 526 -42 q 437 -224 496 -171 q 267 -278 378 -278 l 125 -278 l 125 -111 l 299 -111 l 299 0 l 56 694 l 276 694 l 411 167 l 526 694 l 735 694 l 526 -42 z "},"–":{"ha":458,"x_min":56,"x_max":403,"o":"m 56 542 l 403 542 l 403 361 l 56 361 l 56 542 z "},"—":{"ha":667,"x_min":56,"x_max":611,"o":"m 56 542 l 611 542 l 611 361 l 56 361 l 56 542 z "},"‘":{"ha":306,"x_min":56,"x_max":250,"o":"m 250 653 l 56 653 l 56 847 l 117 972 l 210 972 l 157 847 l 250 847 l 250 653 z "},"’":{"ha":306,"x_min":56,"x_max":250,"o":"m 56 972 l 250 972 l 250 778 l 189 653 l 96 653 l 149 778 l 56 778 l 56 972 z "},"‚":{"ha":833,"x_min":56,"x_max":250,"o":"m 56 194 l 250 194 l 250 0 l 189 -125 l 96 -125 l 149 0 l 56 0 l 56 194 z "},"“":{"ha":596,"x_min":56,"x_max":540,"o":"m 250 653 l 56 653 l 56 847 l 117 972 l 210 972 l 157 847 l 250 847 l 250 653 m 540 653 l 346 653 l 346 847 l 407 972 l 500 972 l 447 847 l 540 847 l 540 653 z "},"”":{"ha":596,"x_min":90,"x_max":575,"o":"m 90 972 l 285 972 l 285 778 l 224 653 l 131 653 l 183 778 l 90 778 l 90 972 m 381 972 l 575 972 l 575 778 l 514 653 l 421 653 l 474 778 l 381 778 l 381 972 z "},"„":{"ha":596,"x_min":56,"x_max":540,"o":"m 56 194 l 250 194 l 250 0 l 189 -125 l 96 -125 l 149 0 l 56 0 l 56 194 m 346 194 l 540 194 l 540 0 l 479 -125 l 386 -125 l 439 0 l 346 0 l 346 194 z "},"†":{"ha":833,"x_min":78,"x_max":754,"o":"m 393 0 l 306 571 q 374 642 343 596 l 78 590 l 94 683 l 78 775 l 374 721 l 319 972 l 415 956 l 519 972 l 460 721 l 754 775 l 738 683 l 754 590 l 460 642 q 519 571 488 590 l 442 0 l 393 0 z "},"‡":{"ha":833,"x_min":81,"x_max":751,"o":"m 454 407 q 528 329 474 378 l 442 0 l 393 0 l 303 329 q 326 345 314 335 q 344 363 338 356 q 363 386 350 369 q 379 407 375 403 l 81 357 l 94 451 l 81 542 l 379 488 l 333 569 l 364 635 l 81 585 l 94 675 l 81 769 l 364 717 l 317 972 l 415 957 l 513 972 l 454 717 l 751 769 l 736 675 l 751 585 l 454 635 l 496 569 l 454 488 l 751 542 l 736 451 l 751 357 l 454 407 z "},"•":{"ha":526,"x_min":54,"x_max":471,"o":"m 471 485 q 410 338 471 399 q 263 278 349 278 q 116 338 176 278 q 56 485 56 397 q 115 633 54 572 q 263 694 175 694 q 410 633 349 694 q 471 485 471 572 z "},"…":{"ha":917,"x_min":56,"x_max":861,"o":"m 56 194 l 250 194 l 250 0 l 56 0 l 56 194 m 358 194 l 553 194 l 553 0 l 358 0 l 358 194 m 667 194 l 861 194 l 861 0 l 667 0 l 667 194 z "},"‰":{"ha":1864,"x_min":56,"x_max":1808,"o":"m 846 1033 l 976 1033 l 413 -57 l 281 -57 l 846 1033 m 565 746 q 490 568 565 643 q 311 493 414 493 q 131 567 206 493 q 56 749 56 642 q 131 926 56 851 q 313 1000 207 1000 q 491 926 417 1000 q 565 746 565 851 m 179 879 l 179 615 l 443 615 l 443 879 l 179 879 m 958 479 q 1137 405 1063 479 q 1211 225 1211 331 q 1135 47 1211 122 q 957 -28 1060 -28 q 775 47 850 -28 q 700 228 700 122 q 776 405 700 331 q 958 479 853 479 m 1556 479 q 1734 405 1660 479 q 1808 225 1808 331 q 1733 47 1808 122 q 1554 -28 1657 -28 q 1372 47 1447 -28 q 1297 228 1297 122 q 1374 405 1297 331 q 1556 479 1450 479 m 1088 94 l 1088 358 l 824 358 l 824 94 l 1088 94 m 1685 94 l 1685 358 l 1421 358 l 1421 94 l 1685 94 z "},"‹":{"ha":543,"x_min":56,"x_max":488,"o":"m 314 694 l 488 694 l 226 360 l 488 0 l 314 0 l 56 360 l 314 694 z "},"›":{"ha":488,"x_min":0,"x_max":432,"o":"m 174 694 l 432 360 l 174 0 l 0 0 l 261 360 l 0 694 l 174 694 z "},"⁄":{"ha":833,"x_min":88,"x_max":694,"o":"m 582 1028 l 694 1028 l 200 -97 l 88 -97 l 582 1028 z "},"€":{"ha":989,"x_min":-121,"x_max":868,"o":"m 632 160 l 632 333 l 868 333 q 752 65 868 157 q 444 -28 636 -28 q 163 68 269 -28 q 21 331 57 164 l -121 331 l -121 414 l 8 414 q 4 504 4 458 q 6 553 4 536 l -121 553 l -121 636 l 17 636 q 160 899 49 799 q 451 1000 271 1000 q 759 900 650 1000 q 868 625 868 800 l 632 625 l 632 813 l 281 813 l 281 636 l 499 636 l 499 553 l 281 553 l 281 414 l 499 414 l 499 331 l 281 331 l 281 160 l 632 160 z "},"™":{"ha":1064,"x_min":56,"x_max":1010,"o":"m 56 879 l 56 972 l 421 972 l 421 879 l 294 879 l 294 486 l 183 486 l 183 879 l 56 879 m 829 972 l 1010 972 l 1010 486 l 899 486 l 899 872 l 786 486 l 693 486 l 583 872 l 583 486 l 472 486 l 472 972 l 649 972 l 742 667 l 829 972 z "},"℮":{"ha":1276,"x_min":56,"x_max":1221,"o":"m 56 488 q 209 855 56 710 q 642 1000 363 1000 q 1221 432 1221 1000 l 388 432 l 388 183 l 843 183 l 843 315 l 1207 315 q 1176 177 1207 238 q 1094 78 1146 117 q 971 16 1043 40 q 822 -18 899 -8 q 658 -28 746 -28 q 202 109 349 -28 q 56 488 56 246 m 388 501 l 917 501 l 917 801 l 388 801 l 388 501 z "},"↖":{"ha":829,"x_min":56,"x_max":774,"o":"m 774 779 l 249 781 l 249 240 l 56 240 l 56 974 l 774 972 l 774 779 z "},"↗":{"ha":829,"x_min":56,"x_max":774,"o":"m 56 779 l 56 972 l 774 974 l 774 240 l 581 240 l 581 781 l 56 779 z "},"↘":{"ha":844,"x_min":56,"x_max":789,"o":"m 594 778 l 788 778 l 789 60 l 56 60 l 56 253 l 596 253 l 594 778 z "},"↙":{"ha":844,"x_min":56,"x_max":789,"o":"m 250 760 l 249 235 l 789 235 l 789 42 l 56 42 l 57 760 l 250 760 z "},"∂":{"ha":833,"x_min":40,"x_max":799,"o":"m 315 667 l 65 667 q 167 911 65 822 q 418 1000 268 1000 q 713 868 628 1000 q 799 486 799 736 q 407 -28 799 -28 q 135 66 231 -28 q 40 306 40 160 q 127 527 40 442 q 338 613 214 613 q 466 583 410 613 q 549 503 522 553 l 549 813 l 318 814 l 315 667 m 554 425 l 267 425 l 267 160 l 554 160 l 554 425 z "},"∅":{"ha":1146,"x_min":56,"x_max":1090,"o":"m 826 911 q 1019 730 947 846 q 1090 471 1090 614 q 938 106 1090 257 q 572 -46 786 -46 q 417 -22 492 -46 l 383 -97 l 271 -97 l 322 18 q 128 207 200 86 q 56 471 56 328 q 206 830 56 685 q 572 975 357 975 q 732 951 654 975 l 765 1028 l 878 1028 l 826 911 m 300 193 l 399 193 l 638 738 l 300 738 l 300 193 m 844 193 l 844 738 l 750 738 l 511 193 l 844 193 z "},"∏":{"ha":1100,"x_min":56,"x_max":1044,"o":"m 1044 972 l 1044 810 l 892 810 l 892 0 l 715 0 l 715 810 l 383 810 l 383 0 l 207 0 l 207 810 l 56 810 l 56 972 l 1044 972 z "},"∑":{"ha":872,"x_min":56,"x_max":817,"o":"m 56 0 l 56 115 l 467 474 l 69 850 l 69 975 l 793 975 l 793 824 l 363 818 l 693 475 l 329 167 l 817 167 l 817 0 l 56 0 z "},"−":{"ha":799,"x_min":56,"x_max":743,"o":"m 56 532 l 743 532 l 743 393 l 56 393 l 56 532 z "},"√":{"ha":833,"x_min":47,"x_max":857,"o":"m 553 -211 l 410 -211 l 188 450 l 78 407 l 47 508 l 294 607 l 482 -6 l 733 1111 l 857 1111 l 553 -211 z "},"∞":{"ha":833,"x_min":71,"x_max":1086,"o":"m 1086 432 q 1015 247 1086 317 q 847 178 944 178 q 581 347 711 178 q 451 222 514 265 q 304 178 388 178 q 140 248 210 178 q 71 425 71 318 q 141 607 71 536 q 317 678 211 678 q 458 635 394 678 q 586 511 522 593 q 699 624 661 596 q 857 678 772 678 q 1021 610 956 678 q 1086 433 1086 542 l 1086 432 m 319 276 q 400 301 358 276 q 464 350 442 326 q 526 421 486 374 q 421 542 454 515 q 311 582 369 582 q 210 538 247 582 q 174 424 174 493 q 215 319 174 363 q 318 276 257 276 l 319 276 m 844 582 q 794 573 818 582 q 744 542 769 564 q 706 509 718 521 q 666 465 693 497 q 636 431 639 433 q 753 310 708 343 q 851 276 797 276 q 947 323 911 276 q 983 425 983 369 q 945 538 983 494 q 846 582 907 582 l 844 582 z "},"∫":{"ha":833,"x_min":0,"x_max":0,"o":""},"≈":{"ha":833,"x_min":129,"x_max":743,"o":"m 743 697 q 586 475 743 475 q 532 481 553 475 q 436 515 511 488 q 308 549 350 549 q 247 474 247 549 l 135 474 q 176 643 129 585 q 296 697 219 697 q 440 656 347 697 q 557 619 518 619 q 629 697 619 619 l 743 697 m 743 417 q 586 194 743 194 q 532 201 553 194 q 436 235 511 207 q 308 268 350 268 q 247 193 247 268 l 135 193 q 176 363 129 304 q 296 417 219 417 q 440 375 347 417 q 557 339 518 339 q 629 417 619 339 l 743 417 z "},"≠":{"ha":865,"x_min":56,"x_max":810,"o":"m 810 549 l 539 549 l 461 371 l 810 371 l 810 225 l 397 225 l 256 -97 l 143 -97 l 285 225 l 56 225 l 56 371 l 349 371 l 426 549 l 56 549 l 56 694 l 492 694 l 638 1028 l 750 1028 l 604 694 l 810 694 l 810 549 z "},"≤":{"ha":833,"x_min":0,"x_max":0,"o":""},"≥":{"ha":833,"x_min":0,"x_max":0,"o":""},"◊":{"ha":1169,"x_min":67,"x_max":1100,"o":"m 217 124 q 70 485 67 276 q 226 846 74 693 q 587 1003 378 999 q 949 856 796 1007 q 1099 490 1100 704 q 947 124 1099 275 q 582 -28 796 -28 q 217 124 368 -28 m 201 486 l 586 100 l 971 486 l 586 871 l 201 486 z "},"○":{"ha":1146,"x_min":56,"x_max":1090,"o":"m 207 128 q 131 203 207 128 q 56 493 56 279 q 206 852 56 707 q 572 997 357 997 q 939 852 788 997 q 1090 493 1090 707 q 938 128 1090 279 q 572 -24 786 -24 q 207 128 358 -24 m 300 760 l 300 215 l 844 215 l 844 760 l 300 760 z "}}}
